<?xml version="1.0" standalone="no"?>
<!DOCTYPE svg PUBLIC "-//W3C//DTD SVG 1.1//EN" "http://www.w3.org/Graphics/SVG/1.1/DTD/svg11.dtd" >
<svg xmlns="http://www.w3.org/2000/svg">
<metadata>Generated by IcoMoon</metadata>
<defs>
<font id="cryptocoins" horiz-adv-x="1024">
<font-face units-per-em="1024" ascent="960" descent="-64" />
<missing-glyph horiz-adv-x="1024" />
<glyph unicode="&#x20;" horiz-adv-x="512" d="" />
<glyph unicode="&#xe900;" glyph-name="SAR" d="M512.102 717.344l-87.401-147.303-144.865 147.303 232.266-622.080 232.266 622.080-144.869-147.303zM512.102 960c-282.825 0-512.102-229.281-512.102-512.097 0-282.834 229.276-512.102 512.102-512.102 282.821 0 512.097 229.263 512.097 512.102 0 282.816-229.276 512.097-512.097 512.097zM947.612 370.133c-8.733-48.947-25.914-97.254-52.153-142.842-26.226-45.574-59.356-84.71-97.285-116.86l5.17-33.383c-80.185-63.072-181.318-100.676-291.242-100.676-109.68 0-210.61 37.451-290.709 100.252l5.125 33.387c-37.979 32.096-71.168 71.186-97.461 116.72-26.298 45.556-43.552 93.836-52.361 142.783l-31.477 12.255c-3.039 21.602-4.642 43.682-4.642 66.129 0 198.102 122.179 367.643 295.288 437.448l26.42-21.186c46.789 16.847 97.227 26.045 149.818 26.045s103.029-9.198 149.823-26.045l26.415 21.186c173.109-69.813 295.288-239.35 295.288-437.448 0-22.211-1.571-44.057-4.538-65.451l-31.477-12.314z" />
<glyph unicode="&#xe901;" glyph-name="SAR-alt" d="M512.228 960c-282.897 0-512.228-229.335-512.228-512.224 0-282.893 229.331-512.224 512.228-512.224 282.888 0 512.224 229.331 512.224 512.224 0 282.888-229.335 512.224-512.224 512.224zM512.228 95.057l-232.32 622.229 144.901-147.339 87.419 147.339 87.424-147.339 144.901 147.339-232.324-622.229z" />
<glyph unicode="&#xe902;" glyph-name="SCOT" d="M809.859 539.341h-278.517l-14.978 7.478c-37.040 18.667-61.297 29.888-61.297 54.79 0 26.163 26.817 39.858 61.297 39.858 40.869 0 79.183-23.661 117.497-61.044l104.727 103.399c-54.917 70.992-135.373 109.631-223.497 109.631-130.28 0-219.672-87.193-219.672-190.588 0-22.537 4.335-43.57 12.296-63.528h-93.578v-75.67h148.721c14.729-13.199 31.983-25.779 51.521-37.835h-200.242v-75.67h341.088c23.218-15.723 36.489-31.748 36.489-51.25 0-29.906-33.207-53.562-75.349-53.562-44.694 0-102.18 32.385-141.776 77.21l-104.713-112.105c58.751-74.704 139.211-113.347 237.544-113.347 148.156 0 243.938 88.444 243.938 206.785 0 16.653-2.353 31.78-5.744 46.27h64.25v75.67h-102.745c-11.609 13.406-26.045 25.81-42.039 37.835h144.779v75.674zM511.998 960c-282.31 0-511.998-229.687-511.998-511.998s229.687-512.002 512.002-512.002c282.315 0 512.002 229.687 512.002 512.002s-229.687 511.998-512.007 511.998zM511.998 39.038c-225.497 0-408.955 183.445-408.955 408.96 0 225.506 183.454 408.951 408.955 408.951s408.951-183.445 408.951-408.951c0.005-225.515-183.449-408.96-408.951-408.96z" />
<glyph unicode="&#xe903;" glyph-name="SCOT-alt" d="M511.998 760.3c-172.201 0-312.297-140.087-312.297-312.297 0-172.224 140.096-312.302 312.297-312.302 172.206 0 312.297 140.078 312.297 312.302 0.005 172.21-140.092 312.297-312.297 312.297zM660.999 431.074h78.46v-57.784h-49.060c2.587-11.063 4.389-22.618 4.389-35.338 0-90.368-73.15-157.91-186.285-157.91-75.092 0-136.534 29.504-181.399 86.557l79.964 85.613c30.235-34.236 74.139-58.963 108.271-58.963 32.177 0 57.527 18.062 57.527 40.905 0 14.892-10.128 27.124-27.856 39.135h-260.478v57.784h152.916c-14.919 9.207-28.095 18.816-39.343 28.894h-113.573v57.784h71.471c-6.082 15.24-9.392 31.301-9.392 48.514 0 78.953 68.265 145.542 167.753 145.542 67.289 0 128.731-29.508 170.67-83.725l-79.982-78.962c-29.256 28.551-58.516 46.617-89.717 46.617-26.334 0-46.812-10.458-46.812-30.439 0-19.015 18.522-27.585 46.812-41.845l11.433-5.708h212.691v-57.784h-110.561c12.219-9.18 23.241-18.658 32.1-28.89zM512.002 960c-282.771 0-512.002-229.231-512.002-511.998 0-282.771 229.231-512.002 512.002-512.002 282.766 0 511.998 229.231 511.998 512.002 0 282.766-229.231 511.998-511.998 511.998zM511.998 57.010c-215.59 0-390.993 175.403-390.993 390.993s175.403 390.993 390.993 390.993c215.595 0 390.993-175.403 390.993-390.993s-175.394-390.993-390.993-390.993z" />
<glyph unicode="&#xe904;" glyph-name="SDC" d="M279.8 587.661v-267.576l231.724-133.784 231.724 133.784v267.576l-231.724 133.793-231.724-133.793zM692.444 413.111l-62.124 35.207v74.144l-118.801 68.59-83.748-48.351 264.673-149.692v-43.588l-180.92-104.46-180.93 104.46v150.486l62.128-35.202v-79.422l118.801-68.59 88.209 50.939-269.139 152.392v38.309l180.93 104.46 180.92-104.46v-145.221zM511.524 960.953c-283.033 0-512.476-229.444-512.476-512.476s229.444-512.476 512.476-512.476 512.476 229.444 512.476 512.476-229.444 512.476-512.476 512.476zM802.427 280.524l-290.903-167.952-290.903 167.952v335.904l290.903 167.957 290.903-167.957v-335.904z" />
<glyph unicode="&#xe905;" glyph-name="SDC-alt" d="M512.792 960l-443.404-256.003v-511.993l443.404-256.003 443.399 256.003v511.993l-443.399 256.003zM865.995 252.312l-353.203-203.922-353.207 203.922v407.84l353.207 203.927 353.203-203.927v-407.84zM237.016 615.444v-58.394l410.233-232.279-134.457-77.639-181.083 104.551v121.059l-94.693 53.648v-229.38l275.777-159.219 275.768 159.219v66.44l-403.419 228.17 127.652 73.701 181.074-104.546v-113.013l94.693-53.666v221.347l-275.768 159.215z" />
<glyph unicode="&#xe906;" glyph-name="SIA" d="M179.697 798.363c0.903-0.903 1.806-1.806 3.16-2.709l-3.16 2.709c0 0 0 0 0 0zM197.757 815.972l2.709-2.709c-0.903 0.903-1.806 2.257-2.709 2.709 0 0.451 0 0 0 0zM864.169 561.326c-97.975 61.404-220.332 67.725-323.725 19.414 0 0 0 0 0 0-54.631-24.832-120.55-15.802-167.506 26.187-2.257 1.806-4.063 3.612-6.321 5.869l-207.69 207.69c0 0 0 0 0 0-13.996 15.351-19.866 35.668-17.608 55.083 0 0 0 0 0 0 0.903 4.063 1.354 8.578 1.354 13.093-0.451 39.732-32.508 71.337-71.788 71.337s-70.885-32.056-70.885-70.885c0-39.28 31.605-70.885 70.885-70.885 4.515 0 9.030 0.451 13.093 1.354 0 0 0 0 0 0 19.866 1.354 40.183-4.063 55.986-17.608 0 0 0 0 0 0l208.593-208.593c1.806-1.806 3.16-3.612 4.515-5.418 41.989-46.956 50.568-112.875 25.735-167.506 0 0 0 0 0 0-48.762-102.942-42.441-225.75 19.414-323.725 13.093-21.22 28.896-41.086 46.956-59.146 58.243-58.243 135.45-92.557 211.753-99.33 19.866-1.806 304.31-0.903 304.31-0.903 15.351 0 31.153 7.675 41.989 18.511s19.866 28.444 19.866 43.795c0 0 0 261.869 0 275.414s-3.16 33.411-3.16 36.12c-6.772 76.303-39.28 145.383-97.524 203.626-17.608 17.608-37.474 33.411-58.243 46.504v0zM882.229 330.61c8.127-39.28 8.578-56.437 8.578-59.146v-139.513c0-15.351-6.772-33.411-17.608-44.247s-28.896-17.608-44.247-17.608h-135.45c-2.709 0-34.314 0.451-63.661 8.578-32.959 9.030-63.661 26.638-89.397 52.374-79.915 79.915-79.915 209.496 0 289.411s209.947 79.915 289.411 0c25.284-26.187 45.601-56.437 52.374-89.848v0z" />
<glyph unicode="&#xe907;" glyph-name="SIA-alt" d="M665.961 434.004c-40.183 40.183-105.199 40.183-145.383 0s-40.183-105.199 0-145.383c13.093-13.093 28.444-21.672 44.698-26.187 14.899-4.063 30.702-4.063 32.056-4.063h68.176c7.675 0 16.705 3.612 22.123 9.030s9.030 14.448 9.030 22.123v69.982c0 1.354 0 9.933-4.063 29.799-3.612 16.705-13.545 31.605-26.638 44.698zM512 960c-282.638 0-512-229.362-512-512s229.362-512 512-512 512 229.362 512 512c0 282.638-229.362 512-512 512zM349.009 632.663c0.451-0.451 0.903-0.903 1.354-1.354l-1.354 1.354c0 0 0 0 0 0zM763.485 222.702c0-7.675-4.515-16.254-9.933-22.123-5.418-5.418-13.545-9.481-21.22-9.481 0 0-142.674-0.451-152.607 0.451-38.377 3.612-77.206 20.769-106.102 50.116-9.030 9.030-17.157 18.963-23.478 29.799-30.702 49.213-33.862 110.617-9.481 162.54 0 0 0 0 0 0 12.642 27.541 8.127 60.501-13.093 83.979-0.903 0.903-1.354 1.806-2.257 2.709l-105.199 104.748c0 0 0 0 0 0-7.675 6.772-18.060 9.481-27.993 8.578 0 0 0 0 0 0-2.257-0.451-4.515-0.451-6.772-0.451-19.866 0-35.668 15.802-35.668 35.668s15.802 35.668 35.668 35.668 35.668-15.802 35.668-35.668c0-2.257-0.451-4.515-0.451-6.772 0 0 0 0 0 0-0.903-9.481 1.806-19.414 9.030-27.541 0 0 0 0 0 0l104.296-104.296c0.903-0.903 2.257-1.806 3.16-3.16 23.478-21.22 56.437-25.284 83.979-13.093 0 0 0 0 0 0 51.922 24.381 113.326 21.22 162.54-9.481 10.384-6.772 20.769-14.448 29.799-23.478 29.347-29.347 45.601-64.113 48.762-102.49 0-1.354 1.806-11.287 1.806-18.060-0.451-6.772-0.451-138.159-0.451-138.159z" />
<glyph unicode="&#xe908;" glyph-name="SJCX" d="M144.052 263.244c-4.868 0-9.695-1.314-13.957-3.775-6.457-3.739-11.076-9.771-12.995-16.987s-0.926-14.743 2.822-21.2c4.981-8.606 14.264-13.948 24.225-13.948 4.868 0 9.695 1.291 13.957 3.761 13.339 7.73 17.904 24.858 10.187 38.187-4.985 8.597-14.273 13.962-24.239 13.962zM539.51 872.594c0 15.393-12.535 27.942-27.942 27.942-15.416 0-27.946-12.548-27.946-27.942 0-15.42 12.53-27.946 27.946-27.946 15.407-0.005 27.942 12.526 27.942 27.946zM880.919 629.546c4.782 0 9.537 1.26 13.736 3.653 6.498 3.676 11.171 9.672 13.154 16.861 1.987 7.198 1.057 14.738-2.633 21.232-4.953 8.733-14.282 14.16-24.347 14.16-4.786 0-9.546-1.255-13.75-3.648-13.406-7.6-18.12-24.69-10.512-38.088 4.958-8.737 14.287-14.169 24.352-14.169zM157.007 683.262c-4.226 2.42-9.008 3.694-13.835 3.694-10.020 0-19.331-5.387-24.302-14.061-3.712-6.475-4.678-14.016-2.718-21.223 1.96-7.202 6.597-13.208 13.077-16.915 4.235-2.425 9.022-3.707 13.844-3.707 10.015 0 19.331 5.387 24.302 14.070 7.649 13.375 3.003 30.484-10.367 38.142zM892.298 257.992c-4.285 2.511-9.139 3.829-14.052 3.829-9.92 0-19.186-5.319-24.176-13.862-7.767-13.298-3.265-30.443 10.042-38.228 4.281-2.497 9.135-3.816 14.043-3.816 9.925 0 19.186 5.315 24.176 13.858 3.775 6.448 4.8 13.975 2.908 21.196-1.906 7.216-6.498 13.257-12.941 17.023zM483.532 23.41c0-7.455 2.908-14.477 8.182-19.76s12.3-8.187 19.755-8.187h0.014c15.411 0 27.937 12.526 27.937 27.928 0.005 15.416-12.526 27.96-27.937 27.96s-27.951-12.526-27.951-27.942zM922.285 309.346c-3.405 1.987-6.913 3.635-10.449 5.116v261.39c4.127 1.576 8.209 3.364 12.169 5.608 41.989 23.828 56.728 77.178 32.9 119.163-23.814 41.994-77.174 56.732-119.163 32.9-3.156-1.779-6.105-3.797-8.945-5.893l-230.69 133.192c0.515 3.861 0.881 7.767 0.881 11.772 0 48.27-39.14 87.406-87.419 87.406-48.275 0-87.415-39.135-87.415-87.406 0-4.019 0.37-7.916 0.885-11.785l-229.087-132.253c-2.976 2.249-6.060 4.403-9.388 6.304-41.894 23.991-95.308 9.491-119.298-32.412-23.991-41.89-9.491-95.299 32.412-119.289 3.788-2.163 7.694-3.915 11.641-5.468v-261.472c-3.73-1.517-7.428-3.206-11.009-5.288-41.777-24.18-56.055-77.652-31.861-119.434 24.18-41.786 77.661-56.055 119.447-31.861 3.843 2.217 7.369 4.777 10.742 7.46l226.486-130.758c-0.632-4.222-1.061-8.516-1.061-12.91-0.009-48.27 39.117-87.428 87.397-87.428 48.266-0.014 87.419 39.113 87.424 87.392 0 4.375-0.424 8.643-1.034 12.846l225.136 129.986c3.477-2.845 7.13-5.509 11.131-7.843 41.682-24.343 95.217-10.295 119.565 31.4 24.347 41.682 10.291 95.222-31.396 119.565zM935.741 200.262c-11.898-20.378-33.961-33.040-57.59-33.040-11.754 0-23.363 3.147-33.559 9.103-25.91 15.136-37.803 45.182-31.197 72.992l-105.905 61.853c-21.408-21.634-51.074-35.049-83.829-35.049-15.298 0-30.127 2.872-43.958 8.457-15.745-5.102-32.231-7.807-48.826-8.141l-0.036-189.279c27.332-8.331 47.286-33.762 47.272-63.767 0-36.729-29.883-66.621-66.625-66.621-17.8 0-34.548 6.936-47.132 19.525-12.594 12.585-19.516 29.328-19.516 47.132 0.005 30.010 19.967 55.427 47.308 63.731l0.041 192.945c-14.458 3.102-28.452 8.024-41.669 14.847-8.999-1.775-18.188-2.673-27.513-2.673-33.356 0-63.993 11.663-88.223 31.026l-125.818-72.834c6.498-27.829-5.509-57.838-31.482-72.866-10.137-5.87-21.67-8.968-33.342-8.968-23.724 0-45.836 12.734-57.712 33.252-8.918 15.398-11.302 33.36-6.714 50.559 4.583 17.199 15.592 31.572 30.994 40.504 10.142 5.87 21.665 8.972 33.338 8.972 17.073 0 33.243-6.678 45.434-18.017l118.029 68.314c-16.387 23.11-26.117 51.255-26.117 81.671 0 38.964 15.863 74.275 41.416 99.9l-134.077 76.794c-12.214-11.478-28.47-18.229-45.66-18.229-11.564 0-22.997 3.057-33.067 8.823-15.438 8.841-26.528 23.169-31.193 40.35s-2.366 35.148 6.484 50.591c11.844 20.681 34.019 33.527 57.875 33.527 11.56 0 22.988-3.048 33.062-8.814 26.041-14.915 38.187-44.866 31.82-72.712l148.757-85.197c18.906 10.060 40.296 16.052 63.049 16.558 20.983 17.384 45.845 29.274 72.356 34.968v198.386c-27.337 8.313-47.29 33.739-47.29 63.758 0 36.742 29.892 66.634 66.639 66.634 36.738 0 66.63-29.892 66.63-66.634 0-30.019-19.954-55.445-47.29-63.758v-194.62c50.93-0.998 96.522-24.257 126.925-61.004l158.036 89.659c-6.258 27.878 6.010 57.771 32.114 72.581 10.015 5.685 21.372 8.692 32.836 8.692 23.968 0 46.189-12.941 58.001-33.767 8.778-15.483 11.013-33.45 6.272-50.614-4.732-17.163-15.872-31.446-31.351-40.219-10.011-5.685-21.363-8.692-32.832-8.692-17.308 0-33.64 6.827-45.868 18.419l-156.14-88.589c4.547-9.184 8.376-18.789 11.225-28.881 31.771-21.575 51.607-57.748 51.607-97.606 0-18.387-4.348-35.749-11.88-51.286l103.155-60.241c12.169 11.239 28.276 17.845 45.24 17.845 11.763 0 23.367-3.143 33.563-9.112 15.371-8.968 26.325-23.395 30.845-40.603 4.52-17.217 2.068-35.166-6.913-50.537zM644.368 457.354c-0.352 3.459-0.871 6.859-1.531 10.223-0.456 2.371-1.066 4.701-1.666 7.026-0.221 0.849-0.393 1.711-0.628 2.551-0.835 2.953-1.811 5.843-2.872 8.719-0.045 0.117-0.081 0.248-0.126 0.366-5.735 15.402-14.585 29.256-25.815 40.829-0.005 0-0.005 0-0.005 0-2.542 2.619-5.202 5.102-7.983 7.478-0.104 0.095-0.208 0.172-0.307 0.266-2.687 2.285-5.482 4.43-8.367 6.475-0.172 0.126-0.348 0.244-0.524 0.361-2.84 1.978-5.766 3.829-8.778 5.554-0.23 0.135-0.465 0.262-0.695 0.388-2.998 1.693-6.078 3.256-9.23 4.683-0.248 0.108-0.483 0.221-0.736 0.33-3.179 1.418-6.439 2.678-9.758 3.82-0.226 0.068-0.452 0.154-0.668 0.226-3.387 1.133-6.85 2.109-10.363 2.931-0.167 0.036-0.334 0.081-0.501 0.117-3.608 0.822-7.274 1.481-11.004 1.964-0.090 0.018-0.176 0.027-0.266 0.032-4.922 0.641-9.902 1.075-14.991 1.075-14.729 0-28.754-2.863-41.727-7.825-1.066-0.415-2.127-0.849-3.183-1.287-2.998-1.246-5.924-2.61-8.787-4.1-1.54-0.79-3.084-1.58-4.583-2.438-1.481-0.858-2.94-1.752-4.389-2.669-1.928-1.224-3.811-2.52-5.662-3.847-0.971-0.686-1.96-1.341-2.899-2.073-2.619-2-5.121-4.141-7.554-6.34-0.745-0.691-1.481-1.377-2.204-2.064-2.596-2.47-5.102-5.026-7.464-7.721-5.229 0.953-10.584 1.517-16.089 1.517-1.58 0-3.116-0.158-4.678-0.23-21.597-1.12-41.14-9.808-56.091-23.512-0.068-0.072-0.14-0.131-0.217-0.203-7.563-6.985-13.948-15.199-18.766-24.397-0.154-0.303-0.28-0.61-0.429-0.894-1.314-2.587-2.502-5.224-3.567-7.943-0.33-0.835-0.623-1.68-0.93-2.538-0.808-2.24-1.522-4.524-2.154-6.85-0.284-1.043-0.56-2.068-0.799-3.125-0.537-2.321-0.953-4.664-1.305-7.053-0.154-1.011-0.348-1.996-0.465-3.025-0.379-3.373-0.628-6.787-0.628-10.255 0-2.894 0.167-5.73 0.433-8.548 0.090-1.016 0.262-1.991 0.388-2.994 0.226-1.766 0.47-3.513 0.799-5.233 0.235-1.237 0.515-2.456 0.799-3.68 0.33-1.409 0.682-2.8 1.075-4.177 0.388-1.368 0.804-2.727 1.26-4.068 0.375-1.106 0.781-2.199 1.197-3.274 0.582-1.531 1.165-3.043 1.82-4.52 0.289-0.641 0.614-1.26 0.917-1.892 8.963-18.96 24.311-34.25 43.321-43.136 2.849-1.328 5.762-2.52 8.76-3.54 0.081-0.036 0.149-0.063 0.217-0.086 2.795-0.962 5.635-1.766 8.539-2.447 0.33-0.072 0.641-0.176 0.975-0.239 2.646-0.587 5.351-1.043 8.078-1.395 0.555-0.072 1.093-0.19 1.653-0.248 3.22-0.343 6.484-0.555 9.794-0.555 12.39 0 24.194 2.511 34.941 7.040 2.538-1.874 5.166-3.639 7.848-5.315 0.284-0.176 0.587-0.33 0.871-0.506 2.47-1.499 4.985-2.917 7.559-4.24 0.072-0.045 0.154-0.072 0.23-0.117 15.935-8.15 33.947-12.828 53.093-12.828 10.562 0 20.758 1.49 30.488 4.105 0.221 0.059 0.429 0.154 0.655 0.208 4.068 1.12 8.083 2.389 11.966 3.928 4.195 1.644 8.272 3.504 12.205 5.622 11.271-8.783 25.399-14.052 40.793-14.052 3.034 0 5.992 0.271 8.923 0.659 0.704 0.095 1.413 0.208 2.113 0.325 2.836 0.47 5.635 1.079 8.336 1.896 0.036 0 0.072 0.009 0.104 0.023 2.849 0.867 5.586 1.978 8.263 3.206 0.465 0.217 0.912 0.438 1.368 0.659 2.587 1.269 5.107 2.646 7.482 4.226 0.014 0.009 0.027 0.023 0.045 0.023 11.058 7.32 19.791 17.859 24.88 30.276 0 0 0 0.018 0.009 0.018 1.589 3.865 2.831 7.916 3.667 12.115 0.081 0.388 0.108 0.79 0.181 1.188 0.307 1.711 0.605 3.441 0.781 5.224 0.221 2.176 0.339 4.398 0.339 6.647 0 29.495-19.209 54.447-45.778 63.162z" />
<glyph unicode="&#xe909;" glyph-name="SJCX-alt" d="M512.002 960c-282.766 0-511.998-229.231-511.998-512.002 0-282.766 229.231-511.998 512.002-511.998s511.998 229.231 511.998 511.998c-0.005 282.771-229.231 512.002-512.002 512.002zM804.147 349.263c29.68-17.33 39.691-55.45 22.356-85.134-17.339-29.689-55.45-39.691-85.139-22.356-2.84 1.666-5.446 3.567-7.916 5.586l-160.317-92.558c0.438-2.989 0.741-6.033 0.741-9.148 0-34.372-27.878-62.232-62.254-62.223-34.376 0-62.232 27.883-62.232 62.254 0 3.134 0.312 6.186 0.754 9.193l-161.265 93.104c-2.402-1.91-4.913-3.739-7.649-5.31-29.752-17.231-67.836-7.071-85.053 22.686-17.226 29.748-7.058 67.822 22.686 85.039 2.551 1.477 5.188 2.678 7.843 3.766v186.181c-2.813 1.102-5.595 2.348-8.29 3.892-29.834 17.077-40.16 55.116-23.078 84.94 17.082 29.834 55.116 40.165 84.945 23.074 2.366-1.35 4.565-2.872 6.683-4.475l163.121 94.17c-0.37 2.754-0.628 5.527-0.628 8.385 0 34.367 27.865 62.245 62.241 62.245s62.245-27.878 62.245-62.245c0-2.854-0.262-5.635-0.637-8.385l164.277-94.838c2.023 1.499 4.118 2.931 6.367 4.195 29.892 16.965 67.89 6.484 84.845-23.426 16.969-29.901 6.475-67.876-23.426-84.845-2.822-1.603-5.73-2.876-8.67-3.996v-186.118c2.529-1.061 5.021-2.226 7.45-3.653zM774.689 549.708c8.164 0 16.251 2.145 23.381 6.195 11.018 6.24 18.947 16.414 22.324 28.641 3.373 12.219 1.788 25.007-4.47 36.029-8.403 14.833-24.23 24.049-41.298 24.049-8.168 0-16.256-2.145-23.39-6.195-18.577-10.544-27.318-31.825-22.862-51.675l-112.53-63.848c-21.647 26.172-54.109 42.734-90.381 43.443v138.575c19.466 5.92 33.676 24.027 33.676 45.403 0 26.153-21.286 47.448-47.448 47.448-26.167 0-47.453-21.295-47.453-47.448 0-21.376 14.206-39.488 33.676-45.403v-141.261c-18.875-4.050-36.575-12.517-51.517-24.898-16.201-0.352-31.437-4.624-44.902-11.79l-105.914 60.665c4.534 19.832-4.118 41.163-22.663 51.779-7.171 4.109-15.307 6.276-23.535 6.276-16.992 0-32.782-9.153-41.213-23.869-6.299-10.995-7.943-23.792-4.619-36.024 3.323-12.237 11.216-22.437 22.216-28.727 7.166-4.109 15.307-6.286 23.539-6.286 12.241 0 23.814 4.804 32.516 12.982l95.475-54.673c-18.197-18.251-29.49-43.402-29.49-71.136 0-21.656 6.927-41.705 18.599-58.159l-84.042-48.64c-8.683 8.069-20.202 12.837-32.353 12.837-8.313 0-16.518-2.217-23.742-6.394-10.968-6.358-18.811-16.594-22.072-28.84-3.269-12.246-1.567-25.043 4.782-36.006 8.453-14.603 24.203-23.679 41.095-23.679 8.308 0 16.522 2.208 23.738 6.398 18.495 10.688 27.043 32.060 22.419 51.878l89.591 51.855c17.249-13.781 39.068-22.094 62.823-22.094 6.633 0 13.176 0.641 19.588 1.906 9.401-4.863 19.362-8.372 29.662-10.571l-0.027-137.387c-19.462-5.92-33.676-24.013-33.681-45.385 0-12.67 4.931-24.6 13.894-33.563 8.963-8.959 20.884-13.903 33.559-13.903 26.158 0 47.444 21.295 47.444 47.435 0.005 21.367-14.201 39.479-33.663 45.416l0.032 134.777c11.808 0.23 23.548 2.163 34.76 5.789 9.853-3.978 20.41-6.015 31.301-6.015 23.327 0 44.45 9.546 59.694 24.948l75.408-44.044c-4.705-19.796 3.761-41.203 22.221-51.973 7.252-4.24 15.524-6.48 23.896-6.48 16.82 0 32.525 9.017 41.005 23.516 6.394 10.95 8.137 23.733 4.917 35.993-3.22 12.25-11.018 22.514-21.963 28.908-7.256 4.24-15.524 6.484-23.896 6.484-12.083 0-23.548-4.696-32.209-12.702l-73.457 42.888c5.36 11.067 8.462 23.426 8.462 36.53 0 28.38-14.129 54.131-36.742 69.497-2.036 7.184-4.773 14.016-8.001 20.563l111.188 63.081c8.701-8.254 20.329-13.117 32.651-13.117zM764.84 614.473c2.994 1.707 6.385 2.601 9.789 2.601 7.162 0 13.808-3.865 17.33-10.083 2.628-4.624 3.292-9.988 1.878-15.127-1.413-5.111-4.737-9.388-9.361-12.002-2.994-1.707-6.38-2.592-9.785-2.592-7.166 0-13.813 3.865-17.344 10.083-5.414 9.546-2.059 21.706 7.491 27.12zM266.615 588.36c-3.54-6.195-10.169-10.020-17.308-10.020-3.432 0-6.841 0.908-9.857 2.637-4.61 2.642-7.916 6.909-9.311 12.043-1.395 5.13-0.709 10.494 1.937 15.109 3.536 6.173 10.164 10.011 17.308 10.011 3.436 0 6.845-0.908 9.848-2.633 9.519-5.446 12.828-17.633 7.383-27.147zM260.009 279.305c-3.030-1.757-6.475-2.673-9.939-2.673-7.094 0-13.704 3.797-17.245 9.92-2.669 4.601-3.382 9.966-2.014 15.104 1.373 5.134 4.66 9.433 9.257 12.088 3.034 1.757 6.471 2.691 9.939 2.691 7.094 0 13.709-3.811 17.254-9.934 5.5-9.496 2.249-21.697-7.252-27.197zM755.575 305.558c3.549 6.087 10.151 9.866 17.217 9.866 3.495 0 6.954-0.935 10.006-2.723 4.588-2.678 7.857-6.99 9.212-12.119 1.341-5.143 0.619-10.503-2.068-15.095-3.554-6.087-10.151-9.871-17.213-9.871-3.499 0-6.958 0.935-10.006 2.714-9.473 5.549-12.684 17.759-7.148 27.228zM491.8 750.33c0 10.954 8.923 19.891 19.895 19.891s19.895-8.936 19.895-19.891c0-10.982-8.927-19.909-19.895-19.909-10.977 0-19.895 8.927-19.895 19.909zM531.532 145.652c0-10.964-8.923-19.877-19.895-19.877h-0.009c-5.31 0-10.309 2.059-14.066 5.825s-5.825 8.76-5.825 14.075c0 10.977 8.932 19.895 19.9 19.895 10.973 0 19.9-8.932 19.895-19.918zM638.85 409.689c0-1.598-0.086-3.183-0.244-4.737-0.126-1.273-0.33-2.506-0.555-3.721-0.054-0.284-0.077-0.573-0.122-0.849-0.601-2.989-1.486-5.861-2.619-8.62-0.005 0-0.005 0-0.005-0.014-3.626-8.837-9.839-16.346-17.714-21.557-0.014 0-0.023-0.005-0.032-0.014-1.698-1.124-3.486-2.109-5.333-3.007-0.321-0.158-0.646-0.316-0.971-0.47-1.901-0.881-3.856-1.662-5.893-2.294-0.018 0-0.045-0.009-0.068-0.009-1.928-0.582-3.919-1.016-5.933-1.355-0.497-0.081-1.002-0.163-1.504-0.235-2.086-0.28-4.195-0.465-6.353-0.465-10.959 0-21.019 3.748-29.048 9.997-2.804-1.499-5.708-2.827-8.692-3.996-2.759-1.097-5.617-2.005-8.521-2.8-0.163-0.041-0.307-0.099-0.465-0.149-6.931-1.86-14.197-2.917-21.715-2.917-13.632 0-26.456 3.328-37.803 9.126-0.059 0.036-0.108 0.059-0.167 0.095-1.833 0.935-3.626 1.951-5.378 3.016-0.199 0.126-0.415 0.244-0.623 0.361-1.906 1.192-3.775 2.456-5.586 3.784-7.654-3.229-16.061-5.003-24.876-5.003-2.362 0-4.683 0.144-6.976 0.388-0.402 0.041-0.786 0.122-1.174 0.176-1.951 0.248-3.87 0.573-5.757 0.998-0.235 0.041-0.461 0.113-0.691 0.167-2.068 0.479-4.096 1.057-6.082 1.743-0.054 0.014-0.099 0.027-0.158 0.059-2.131 0.727-4.208 1.58-6.236 2.52-13.533 6.326-24.46 17.217-30.85 30.723-0.217 0.452-0.443 0.89-0.646 1.341-0.47 1.048-0.881 2.136-1.3 3.224-0.289 0.763-0.582 1.544-0.849 2.33-0.325 0.953-0.623 1.928-0.903 2.908-0.275 0.971-0.528 1.964-0.763 2.967-0.203 0.867-0.402 1.738-0.569 2.619-0.235 1.224-0.406 2.47-0.569 3.725-0.095 0.713-0.212 1.413-0.275 2.136-0.194 2.005-0.312 4.032-0.312 6.087 0 2.474 0.176 4.899 0.443 7.306 0.090 0.732 0.226 1.431 0.334 2.158 0.248 1.693 0.551 3.369 0.93 5.017 0.172 0.75 0.375 1.481 0.569 2.222 0.452 1.657 0.957 3.287 1.531 4.877 0.221 0.623 0.429 1.219 0.659 1.806 0.759 1.942 1.603 3.811 2.542 5.658 0.104 0.203 0.194 0.42 0.303 0.637 3.436 6.556 7.979 12.399 13.366 17.371 0.050 0.054 0.104 0.104 0.158 0.149 10.638 9.762 24.555 15.949 39.935 16.743 1.111 0.050 2.204 0.163 3.337 0.163 3.91 0 7.726-0.402 11.451-1.079 1.675 1.919 3.468 3.739 5.31 5.495 0.519 0.483 1.043 0.975 1.571 1.472 1.734 1.562 3.518 3.093 5.378 4.511 0.668 0.515 1.377 0.993 2.064 1.481 1.319 0.939 2.66 1.865 4.046 2.732 1.030 0.659 2.064 1.296 3.12 1.901 1.070 0.619 2.167 1.17 3.265 1.734 2.036 1.070 4.123 2.041 6.258 2.921 0.75 0.316 1.499 0.628 2.262 0.917 9.239 3.545 19.222 5.572 29.712 5.572 3.626 0 7.175-0.307 10.675-0.754 0.068-0.009 0.126-0.009 0.194-0.032 2.651-0.348 5.26-0.813 7.825-1.404 0.117-0.023 0.244-0.054 0.357-0.077 2.506-0.587 4.967-1.282 7.383-2.095 0.158-0.050 0.316-0.099 0.47-0.154 2.371-0.813 4.692-1.707 6.958-2.723 0.172-0.077 0.343-0.158 0.519-0.235 2.244-1.020 4.439-2.122 6.574-3.332 0.163-0.095 0.33-0.176 0.488-0.28 2.149-1.228 4.235-2.538 6.254-3.951 0.126-0.086 0.253-0.167 0.37-0.262 2.059-1.454 4.046-2.98 5.96-4.61 0.072-0.063 0.144-0.122 0.221-0.185 1.973-1.689 3.865-3.463 5.676-5.315 0 0 0 0 0.014 0 7.997-8.254 14.296-18.111 18.373-29.075 0.036-0.090 0.068-0.181 0.095-0.266 0.75-2.050 1.449-4.1 2.045-6.209 0.172-0.596 0.284-1.219 0.447-1.815 0.429-1.657 0.858-3.31 1.188-4.999 0.465-2.402 0.84-4.818 1.084-7.283 18.942-6.218 32.615-23.995 32.615-44.987z" />
<glyph unicode="&#xe90a;" glyph-name="SLG" d="M963.755 649.518c-0.009 0.19-0.036 0.375-0.036 0.569-0.054 1.919-0.257 3.816-0.637 5.644l-0.009 0.009c-0.849 4.041-2.461 7.785-4.683 11.081-0.036 0.059-0.072 0.117-0.104 0.167-1.138 1.662-2.425 3.206-3.838 4.615-0.072 0.072-0.158 0.149-0.23 0.217-1.445 1.413-3.034 2.687-4.737 3.802-0.027 0.023-0.054 0.045-0.081 0.077l-436.527 284.302-438.229-284.297c-8.674-5.635-14.413-15.389-14.413-26.492v-402.435c0-0.117 0.023-0.239 0.023-0.352 0-0.199 0.027-0.415 0.027-0.619 0.063-1.906 0.262-3.779 0.646-5.586 0.009-0.032 0.018-0.068 0.027-0.090 0.853-4.014 2.47-7.758 4.692-11.040 0.045-0.068 0.095-0.122 0.131-0.181 1.124-1.639 2.398-3.161 3.807-4.565 0.086-0.086 0.181-0.154 0.262-0.239 1.445-1.404 3.016-2.664 4.701-3.761 0.036-0.032 0.063-0.068 0.104-0.095l438.229-284.243 436.536 284.293c8.634 5.649 14.359 15.38 14.359 26.479v402.43c-0.009 0.108-0.018 0.208-0.018 0.312zM123.47 598.999l669.451-320.61h-669.451v320.61zM231.083 617.584h669.442v-320.61l-669.442 320.61zM825.663 680.823h-626.966l314.113 203.755 312.853-203.755zM512.811 11.431l-314.113 203.719h626.961l-312.848-203.719z" />
<glyph unicode="&#xe90b;" glyph-name="SLG-alt" d="M263.336 544.705v-204.694h427.41zM511.916 727.030l-200.554-130.090h400.29zM511.916 169.562l199.727 130.072h-400.281zM759.449 351.873v204.694h-427.41zM512.002 960c-282.771 0-512.002-229.222-512.002-512.002 0-282.762 229.236-511.998 512.007-511.998 282.766 0 512.002 229.236 512.002 511.998-0.005 282.78-229.24 512.002-512.007 512.002zM799.826 319.822c0-7.085-3.653-13.298-9.166-16.906v-0.014l-278.703-181.494-279.795 181.476c-0.027 0.018-0.041 0.041-0.068 0.059-1.075 0.704-2.077 1.508-3.003 2.402-0.054 0.054-0.113 0.095-0.167 0.154-0.899 0.894-1.711 1.865-2.429 2.917-0.027 0.036-0.059 0.077-0.090 0.113-1.418 2.1-2.447 4.484-2.998 7.053-0.005 0.014-0.009 0.032-0.014 0.054-0.244 1.156-0.375 2.353-0.411 3.567 0 0.131-0.014 0.266-0.014 0.397 0 0.072-0.014 0.144-0.014 0.226v256.929c0 7.089 3.667 13.316 9.202 16.919v0.014l279.795 181.498 278.703-181.517c0.023-0.018 0.041-0.036 0.059-0.050 1.088-0.713 2.095-1.522 3.021-2.429 0.045-0.045 0.099-0.095 0.144-0.135 0.903-0.899 1.725-1.887 2.447-2.949 0.027-0.032 0.050-0.072 0.077-0.104 1.413-2.104 2.443-4.497 2.989-7.076v-0.005c0.248-1.165 0.375-2.375 0.411-3.603 0-0.122 0.014-0.239 0.014-0.361 0.005-0.072 0.009-0.135 0.009-0.203v-256.934z" />
<glyph unicode="&#xe90c;" glyph-name="SLS" d="M543.605-63.097c37.023 15.351 71.788 36.12 96.169 63.661 76.755 88.042 107.457 247.873-18.060 338.624-65.016 46.956-152.155 68.176-244.713 111.52s-145.383 112.875-160.734 205.432c-12.642 76.303-7.675 178.342 95.718 263.224-183.309-77.658-311.986-259.612-311.986-471.365 0-282.638 229.362-512 512-512 10.836 0 21.22 0.451 31.605 0.903zM740.91 906.272l18.060-196.854-29.799-8.578c0 0-39.28 138.61-121.905 189.63s-235.231 52.374-279.929-59.598c-44.698-111.972 8.127-228.007 173.376-273.157s317.404-99.781 306.568-337.27c-8.127-177.891-110.617-241.552-181.954-271.351 228.459 51.471 399.125 255.549 399.125 499.358-0.451 200.014-115.584 373.841-283.541 457.82z" />
<glyph unicode="&#xe90d;" glyph-name="SLS-alt" d="M512 960c-282.638 0-512-229.362-512-512s229.362-512 512-512 512 229.362 512 512c0 282.638-229.362 512-512 512zM512 123.824c-175.633 0-317.855 142.222-317.855 317.855 0 131.386 79.915 244.261 193.693 292.571-64.113-52.825-67.273-116.035-59.598-163.443 9.481-57.34 41.989-100.684 99.781-127.323 57.34-27.090 111.52-39.732 151.704-69.079 77.658-56.437 58.695-155.767 11.287-210.399-14.899-17.157-36.571-29.799-59.598-39.732-6.321 0-13.093-0.451-19.414-0.451zM581.982 131.499c44.247 18.511 107.908 58.243 112.875 168.409 6.772 147.189-87.591 181.051-190.533 209.496-102.49 27.993-135.45 100.233-107.457 169.764 27.541 69.531 122.356 68.628 173.827 37.023s75.852-117.39 75.852-117.39l18.511 5.418-11.287 121.905c104.296-52.374 175.633-159.831 175.633-284.444 0.451-151.252-105.651-278.123-247.422-310.18z" />
<glyph unicode="&#xe90e;" glyph-name="SNRG" d="M507.937 960l-406.349-264.578v-188.275l194.145-124.614 335.464 217.623-119.196 77.206-217.171-143.125-103.845 67.273 316.952 205.884 414.025-269.996v151.704zM392.804 296.296l118.744-77.658 217.623 143.125 103.845-67.273-317.404-205.884-414.025 269.996v-151.704l414.025-270.899 406.349 265.030v187.824l-193.693 125.065z" />
<glyph unicode="&#xe90f;" glyph-name="SNRG-alt" d="M512 960c-282.638 0-512-229.362-512-512s229.362-512 512-512c282.638 0 512 229.362 512 512s-229.362 512-512 512zM783.802 284.557l-269.093-175.182-274.060 179.245v100.684l274.060-178.794 209.947 136.353-68.628 44.698-144.028-94.815-79.012 51.471 222.138 144.028 128.677-82.624v-125.065zM783.802 507.598l-274.060 178.794-210.399-136.353 68.628-44.698 144.028 94.815 79.012-51.471-222.138-144.028-128.677 82.624v124.614l269.093 175.182 274.511-179.245v-100.233z" />
<glyph unicode="&#xe910;" glyph-name="START" d="M511.998 960c-282.771 0-511.998-229.236-511.998-512.016 0-282.748 229.227-511.984 512.002-511.984 282.785 0 512.002 229.24 512.002 511.984-0.005 282.78-229.222 512.016-512.007 512.016zM718.869 655.772c-0.461-4.028-1.12-8.435-2.023-13.307-0.903-4.827-2.041-9.717-3.405-14.698-1.346-4.976-3.007-9.537-4.962-13.704-1.96-4.159-4.136-7.595-6.556-10.273-2.411-2.682-4.953-4.010-7.658-4.010-4.231 0-9.501 1.662-15.813 5.008-6.326 3.364-14.079 6.994-23.259 10.887-9.189 3.874-19.949 7.527-32.276 10.896-12.363 3.341-26.352 5.021-42.021 5.021-16.256 0-30.023-2.009-41.312-6.042-11.298-4.028-20.559-9.338-27.779-15.94-7.234-6.552-12.585-13.975-16.030-22.139-3.472-8.214-5.188-16.472-5.188-24.776 0-9.672 2.705-18.202 8.11-25.616 5.428-7.374 12.657-14.233 21.697-20.545 9.026-6.335 19.335-12.445 30.926-18.333 11.596-5.915 23.336-12.092 35.252-18.531 11.885-6.444 23.611-13.506 35.198-21.141 11.605-7.663 21.918-16.563 30.953-26.637 9.022-10.056 16.26-21.606 21.679-34.652 5.41-13.018 8.123-27.982 8.123-44.92 0-25.264-5.721-48.704-17.159-70.315-11.451-21.661-27.626-40.454-48.555-56.434-20.925-15.967-46.225-28.565-75.864-37.659-8.29-2.547-16.906-4.678-25.688-6.511l-4.642-64.873c-0.732-13.045-11.356-23.155-24.18-23.512-0.7-0.018-1.413-0.018-2.127 0.023-13.745 0.777-24.266 12.576-23.476 26.302l3.965 55.576c-7.405-0.424-14.86-0.732-22.546-0.732-5.978 0-11.532 0.379-17.226 0.641l-4.172-58.294c-0.732-13.045-11.352-23.155-24.176-23.512-0.704-0.018-1.418-0.018-2.122 0.023-13.754 0.777-24.271 12.576-23.485 26.302l4.398 61.6c-11.379 2.298-22.085 4.818-31.455 7.771-12.788 4.032-23.557 8.263-32.29 12.684-8.733 4.43-15.204 8.679-19.412 12.688-4.226 4.037-6.326 10.074-6.326 18.157 0 2.149 0.307 5.36 0.908 9.677 0.596 4.294 1.422 8.941 2.474 13.88 1.066 4.962 2.33 10.092 3.843 15.325 1.495 5.22 3.305 10.011 5.428 14.3 2.091 4.294 4.43 7.794 6.994 10.471 2.556 2.678 5.342 4.046 8.363 4.046 5.107 0 11.198-2.082 18.288-6.263 7.058-4.163 15.863-8.724 26.406-13.682 10.535-4.981 23.029-9.609 37.492-13.899 14.445-4.303 31.771-6.471 51.932-6.471 17.764 0 33.356 2.014 46.753 6.042 13.375 4.050 24.605 9.541 33.64 16.522 9.035 6.99 15.89 15.136 20.541 24.392 4.678 9.275 7.022 19.416 7.022 30.425 0 9.929-2.718 18.658-8.146 26.185-5.423 7.527-12.58 14.463-21.457 20.776-8.877 6.304-18.96 12.305-30.244 17.904-11.298 5.649-22.826 11.722-34.539 18.161-11.758 6.444-23.273 13.433-34.552 20.943-11.298 7.523-21.39 16.337-30.267 26.411-8.877 10.051-16.043 21.674-21.448 34.873-5.414 13.149-8.123 28.47-8.123 45.913 0 24.18 5.423 46.5 16.247 66.914 10.846 20.414 25.901 37.925 45.164 52.587 15.176 11.528 32.769 20.983 52.632 28.533l5.518 77.178c0.777 13.772 12.661 24.284 26.302 23.489 13.754-0.768 24.271-12.571 23.489-26.298l-4.353-60.801c12.828 2.131 26.172 3.459 40.061 3.987l4.245 59.622c0.799 13.772 12.67 24.284 26.312 23.489 13.754-0.768 24.275-12.571 23.485-26.298l-4.19-58.633c2.321-0.266 4.746-0.415 7.022-0.75 13.56-2.032 25.91-4.561 37.036-7.663 11.135-3.093 20.622-6.507 28.452-10.268 7.839-3.766 13.248-6.936 16.26-9.482 3.012-2.538 5.197-5.224 6.552-8.028 1.355-2.836 2.036-6.403 2.036-10.697-0.009-2.181-0.248-5.256-0.691-9.288z" />
<glyph unicode="&#xe911;" glyph-name="START-alt" d="M662.958 626.9c-2.28 1.937-6.38 4.33-12.327 7.193-5.942 2.854-13.14 5.45-21.588 7.798-8.439 2.353-17.813 4.267-28.1 5.811-1.734 0.257-3.572 0.37-5.333 0.569l3.179 44.491c0.601 10.413-7.383 19.376-17.818 19.949-10.354 0.605-19.362-7.374-19.967-17.818l-3.22-45.24c-10.539-0.402-20.663-1.413-30.398-3.030l3.305 46.134c0.592 10.413-7.392 19.376-17.827 19.949-10.349 0.605-19.362-7.374-19.958-17.818l-4.186-58.561c-15.068-5.73-28.416-12.905-39.93-21.652-14.621-11.122-26.036-24.415-34.268-39.903-8.214-15.483-12.327-32.425-12.327-50.772 0-13.235 2.059-24.858 6.164-34.841 4.109-10.006 9.537-18.829 16.278-26.452 6.733-7.645 14.391-14.337 22.966-20.044 8.552-5.698 17.294-11 26.212-15.885 8.886-4.89 17.633-9.501 26.208-13.79 8.561-4.24 16.21-8.792 22.952-13.582 6.737-4.786 12.165-10.051 16.278-15.759s6.182-12.327 6.182-19.868c0-8.354-1.784-16.052-5.333-23.083-3.531-7.031-8.733-13.203-15.578-18.509-6.859-5.297-15.38-9.469-25.526-12.535-10.164-3.057-21.999-4.583-35.469-4.583-15.307 0-28.447 1.639-39.415 4.904-10.973 3.26-20.45 6.769-28.443 10.544-8.001 3.766-14.684 7.229-20.040 10.39-5.373 3.165-9.997 4.75-13.871 4.75-2.294 0-4.412-1.039-6.349-3.071-1.942-2.041-3.721-4.692-5.301-7.956-1.612-3.251-2.989-6.882-4.123-10.846-1.147-3.969-2.109-7.861-2.917-11.623-0.799-3.743-1.422-7.27-1.883-10.535-0.452-3.274-0.686-5.717-0.686-7.342 0-6.132 1.594-10.715 4.8-13.777 3.192-3.039 8.101-6.267 14.734-9.622 6.624-3.355 14.797-6.57 24.496-9.631 7.103-2.235 15.235-4.15 23.86-5.893l-3.337-46.739c-0.592-10.413 7.383-19.376 17.818-19.958 0.537-0.027 1.079-0.027 1.607-0.018 9.731 0.271 17.791 7.947 18.346 17.836l3.165 44.233c4.321-0.194 8.53-0.483 13.072-0.483 5.825 0 11.487 0.239 17.105 0.555l-3.007-42.165c-0.596-10.413 7.383-19.376 17.809-19.958 0.537-0.027 1.084-0.027 1.612-0.018 9.731 0.271 17.795 7.947 18.346 17.836l3.522 49.227c6.665 1.391 13.199 3.007 19.489 4.94 22.487 6.9 41.682 16.463 57.558 28.574 15.881 12.133 28.154 26.388 36.846 42.82 8.679 16.4 13.018 34.182 13.018 53.355 0 12.846-2.059 24.203-6.168 34.078-4.109 9.898-9.604 18.667-16.445 26.293-6.859 7.64-14.684 14.395-23.485 20.211-8.787 5.789-17.692 11.153-26.713 16.043-9.035 4.886-17.944 9.568-26.745 14.057-8.787 4.466-16.608 9.103-23.458 13.917-6.859 4.782-12.345 9.988-16.463 15.587-4.105 5.626-6.155 12.097-6.155 19.434 0 6.304 1.305 12.566 3.942 18.798 2.614 6.204 6.674 11.83 12.16 16.807 5.477 5.008 12.508 9.035 21.078 12.092 8.561 3.057 19.010 4.583 31.342 4.583 11.889 0 22.5-1.273 31.879-3.807 9.361-2.556 17.524-5.328 24.501-8.272 6.967-2.949 12.846-5.712 17.642-8.259 4.8-2.542 8.792-3.797 12.002-3.797 2.055 0 3.978 1.011 5.811 3.039 1.833 2.041 3.486 4.642 4.976 7.798 1.477 3.161 2.741 6.62 3.761 10.399 1.039 3.784 1.896 7.491 2.587 11.153 0.677 3.698 1.188 7.044 1.535 10.092 0.334 3.061 0.515 5.4 0.515 7.049 0 3.256-0.515 5.96-1.544 8.119-1.007 2.122-2.669 4.159-4.958 6.087zM512.002 960c-282.771 0-512.002-229.231-512.002-511.998 0-282.771 229.231-512.002 512.002-512.002 282.766 0 511.998 229.231 511.998 512.002 0 282.766-229.231 511.998-511.998 511.998zM511.998 59.516c-214.556 0-388.482 173.94-388.482 388.473 0 214.556 173.931 388.491 388.482 388.491 214.565 0 388.482-173.935 388.482-388.491 0.005-214.534-173.917-388.473-388.482-388.473z" />
<glyph unicode="&#xe912;" glyph-name="STEEM" d="M167.506 849.383c-10.384 4.966-138.61-101.136-138.61-179.245 0-106.554 149.898-348.557 175.182-442.018 21.672-80.367-37.023-176.536-20.769-181.051 14.899-9.481 154.864 132.289 160.282 192.79 7.224 96.169-163.443 377.002-176.988 449.242-16.254 84.43 12.19 158.476 0.903 160.282v0zM488.071 960c-13.093 6.321-176.988-128.677-176.988-228.459 0-136.353 190.984-444.727 223.492-563.922 27.541-102.49-46.956-225.298-26.638-230.716 18.963-12.19 197.305 168.409 204.078 245.616 9.030 122.808-208.593 480.395-225.75 572.952-19.866 107.457 16.254 201.82 1.806 204.529v0zM819.019 849.383c-9.933 4.966-138.61-101.136-138.61-179.245 0-106.554 149.898-348.557 175.182-442.018 21.672-80.367-37.023-176.536-20.769-181.051 14.899-9.481 154.864 132.289 160.282 192.79 7.224 96.169-163.443 377.002-176.988 449.242-15.802 84.43 12.19 158.476 0.903 160.282v0z" />
<glyph unicode="&#xe913;" glyph-name="STEEM-alt" d="M512 960c-282.638 0-512-229.362-512-512s229.362-512 512-512 512 229.362 512 512c0 282.638-229.362 512-512 512zM415.831 335.577c-3.16-32.508-78.561-109.263-86.236-103.845-8.578 2.257 23.026 54.18 11.287 97.524-13.545 50.568-94.363 181.051-94.363 238.392 0 41.989 69.079 99.33 74.949 96.621 6.321-0.903-9.030-41.086-0.451-86.688 6.772-38.829 98.427-190.081 94.815-242.004zM614.942 304.875c-3.612-41.538-100.233-139.062-110.166-132.741-10.836 3.16 29.347 69.079 14.448 124.614-17.157 64.113-120.55 230.716-120.55 304.31 0 53.728 88.494 126.871 95.266 123.259 7.675-1.354-11.739-52.374-0.903-110.166 9.481-50.116 126.871-243.358 121.905-309.277zM767.097 335.577c-2.709-32.508-78.561-109.263-86.236-103.845-8.578 2.257 23.026 54.18 11.287 97.524-13.545 50.568-94.363 181.051-94.363 238.392 0 41.989 69.531 99.33 74.949 96.621 6.321-0.903-9.030-41.086-0.451-86.688 6.772-38.829 98.878-190.081 94.815-242.004z" />
<glyph unicode="&#xe914;" glyph-name="STR" d="M589.749 641.128c-38.309 0-69.366-31.048-69.366-69.357 0-38.305 31.057-69.357 69.366-69.357 38.296 0 69.353 31.053 69.353 69.357 0.005 38.309-31.053 69.357-69.353 69.357zM387.687 351.778c-0.122-0.176-0.257-0.325-0.379-0.497-30.791-41.687-36.81-89.487-13.42-106.754 23.376-17.263 67.28 2.52 98.085 44.215 0.221 0.298 0.411 0.605 0.632 0.912-16.111 11.325-33.581 24.948-48.184 35.55-11.090 8.028-24.289 17.267-36.733 26.573zM511.659 960c-282.581 0-511.659-229.078-511.659-511.659 0-157.219 70.933-297.853 182.514-391.711l70.269 98.685c3.26 4.592 9.618 5.658 14.21 2.389 4.583-3.274 5.649-9.627 2.38-14.21l-70.987-99.692c6.981-5.419 14.115-10.643 21.376-15.705 0.321 0.93 0.727 1.851 1.332 2.696l56.050 78.135c3.287 4.565 9.65 5.617 14.219 2.339 4.579-3.287 5.622-9.654 2.344-14.224l-56.050-78.131c-0.47-0.655-1.011-1.224-1.598-1.729 79.553-50.957 174.129-80.501 275.605-80.501 282.581 0 511.659 229.078 511.659 511.659s-229.082 511.659-511.664 511.659zM691.938 456.261c-32.272-39.054-63.699-77.557-63.699-77.557s27.63-43.94 16.364-106.050c-11.257-62.096-46.934-104.14-46.934-104.14s-2.967 36.521-11.049 56.904c-8.060 20.387-39.908 60.728-39.908 60.728s-14.431-17.561-31.134-18.409c-6.313-0.312-16.459 4.61-28.303 12.074-1.404-2.113-2.845-4.222-4.33-6.308-46.491-65.686-111.261-99.769-144.657-76.14-33.401 23.652-22.789 96.053 23.715 161.739 1.964 2.791 3.969 5.486 6.006 8.146-13.041 10.986-22.514 21.083-23.137 28.167-1.418 16.138 5.938 27.169 5.938 27.169s-31.134 13.014-62.277 13.871c-31.134 0.858-63.699-8.485-63.699-8.485s30.010 50.957 78.989 78.131c48.975 27.178 110.972 26.045 110.972 26.045s28.303 48.97 41.899 71.899c13.587 22.938 41.050 72.762 113.518 111.821 72.464 39.063 159.093 33.121 159.093 33.121s23.209-65.668 23.209-133.617c0-67.944-28.303-120.034-60.575-159.111z" />
<glyph unicode="&#xe915;" glyph-name="STR-alt" d="M261.982 154.638c-6.24 4.448-14.905 2.989-19.349-3.251l-137.193-192.688c-4.443-6.24-2.989-14.905 3.251-19.344 2.443-1.738 5.256-2.574 8.037-2.574 4.335 0 8.602 2.027 11.311 5.829l137.193 192.679c4.448 6.24 2.994 14.901-3.251 19.349zM295.166 91.417c-6.222 4.461-14.892 3.039-19.358-3.183l-76.307-106.37c-4.466-6.227-3.043-14.896 3.188-19.358 2.447-1.766 5.274-2.605 8.074-2.605 4.317 0 8.575 2.014 11.284 5.784l76.307 106.366c4.466 6.231 3.039 14.896-3.188 19.367zM922.949 777.666c0 92.485-31.599 181.891-31.599 181.891s-117.925 8.092-216.579-45.082c-98.663-53.174-136.041-121.010-154.541-152.225s-57.035-97.886-57.035-97.886-84.394 1.535-151.069-35.46c-66.666-36.991-107.517-106.361-107.517-106.361s44.319 12.716 86.71 11.555c42.391-1.16 84.782-18.875 84.782-18.875s-10.020-15.027-8.092-36.991c0.849-9.654 13.745-23.39 31.5-38.341-2.763-3.621-5.5-7.301-8.177-11.081-63.298-89.433-77.756-188.001-32.29-220.187 45.471-32.177 133.639 14.224 196.932 103.639 2.018 2.854 3.987 5.726 5.902 8.593 16.12-10.155 29.933-16.865 38.517-16.432 22.74 1.16 42.391 25.052 42.391 25.052s43.362-54.917 54.339-82.669c10.986-27.747 15.032-77.458 15.032-77.458s48.555 57.229 63.889 141.767-22.275 144.377-22.275 144.377 42.779 52.402 86.71 105.585c43.935 53.187 82.47 124.098 82.47 216.588zM541.028 333.016c-41.921-56.755-101.697-83.698-133.531-60.191-31.829 23.512-23.638 88.575 18.283 145.334 0.167 0.23 0.343 0.447 0.515 0.677 16.933-12.657 34.909-25.241 50.004-36.182 19.882-14.418 43.66-32.967 65.596-48.392-0.303-0.415-0.56-0.831-0.867-1.246zM701.362 623.902c-52.149 0-94.423 42.274-94.423 94.418 0 52.149 42.274 94.418 94.423 94.418 52.144 0 94.414-42.269 94.414-94.418 0-52.144-42.269-94.418-94.414-94.418z" />
<glyph unicode="&#xe916;" glyph-name="STRAT" d="M1024 609.185l-512 310.18-512-310.18 512-310.18 512 310.18zM512 860.67l414.928-251.485-414.928-251.485-414.928 251.485 414.928 251.485zM893.065 468.317l33.411-20.317-414.476-251.485-414.928 251.485 33.862 20.317-48.762 29.347-82.173-49.665 512-310.18 512 310.18-82.173 49.665zM888.55 310.293l37.926-23.478-414.476-251.485-414.928 251.485 38.377 23.478-48.762 29.347-86.688-52.825 512-310.18 512 310.18-86.688 52.825z" />
<glyph unicode="&#xe917;" glyph-name="STRAT-alt" d="M253.743 548.233l258.257-156.67 258.257 156.67-258.257 156.67zM512 960c-282.638 0-512-229.362-512-512s229.362-512 512-512 512 229.362 512 512c0 282.638-229.362 512-512 512zM512 154.526l-318.758 193.242 54.18 32.508 30.25-18.511-23.929-14.448 258.257-156.67 258.257 156.67-23.929 14.448 30.25 18.511 54.18-32.508-318.758-193.242zM512 254.758l-318.758 193.242 51.019 31.153 30.25-18.511-20.769-12.642 258.257-156.67 258.257 156.67-20.769 12.642 30.25 18.511 51.019-31.153-318.758-193.242zM512 354.991l-318.758 193.242 318.758 193.242 318.758-193.242-318.758-193.242z" />
<glyph unicode="&#xe918;" glyph-name="SWIFT" d="M506.131 960l-204.981-118.293 204.981-118.293zM279.026 592.028v237.037l-204.981-118.293zM279.026 328.804v236.586l-204.981-118.293zM733.686 328.804v236.586l-204.981-118.293zM279.026 65.58v236.586l-204.981-118.293zM67.273 434.004v-236.586l204.981 118.293zM67.273 697.228v-236.586l204.981 118.293zM294.829 829.065v-237.037l204.981 118.744zM506.131-64v236.586l-204.981-118.293zM294.829 303.972v-236.586l204.981 118.293zM522.384 960v-236.586l204.981 118.293zM749.489 829.065v-237.037l204.529 118.744zM749.489 565.39v-236.586l204.529 118.293zM749.489 65.58l204.529 118.293-204.529 118.293zM961.242 197.418v236.586l-204.981-118.293zM756.261 578.935l204.981-118.293v236.586zM733.686 592.028v237.037l-204.981-118.293zM522.384-64l204.981 118.293-204.981 118.293zM733.686 67.386v236.586l-204.981-118.293z" />
<glyph unicode="&#xe919;" glyph-name="SWIFT-alt" d="M512 960c-282.638 0-512-229.362-512-512s229.362-512 512-512 512 229.362 512 512c0 282.638-229.362 512-512 512zM367.069 699.937l135.45-78.109-135.45-78.109v156.219zM216.72 612.797l135.45-78.109-135.45-78.109v156.219zM216.72 438.519l135.45-78.109-135.45-78.109v156.219zM356.684 195.16l-135.45 78.561 135.45 78.109v-156.67zM356.684 369.439l-135.45 78.109 135.45 78.109v-156.219zM356.684 543.266l-135.45 78.109 135.45 78.109v-156.219zM367.069 352.734l135.45-78.109-135.45-78.109v156.219zM506.582 109.827l-135.45 78.109 135.45 78.109v-156.219zM506.582 629.954l-135.45 78.109 135.45 78.109v-156.219zM667.316 699.937l135.45-78.109-135.45-78.109v156.219zM667.316 525.658l135.45-78.109-135.45-78.109v156.219zM517.418 786.173l135.45-78.109-135.45-78.109v156.219zM517.418 109.827v156.219l135.45-78.109-135.45-78.109zM656.931 196.515l-135.45 78.109 135.45 78.109v-156.219zM656.931 369.439l-135.45 78.109 135.45 78.109v-156.219zM656.931 543.266l-135.45 78.109 135.45 78.109v-156.219zM667.316 195.16v156.219l135.45-78.109-135.45-78.109zM807.28 282.3l-135.45 78.109 135.45 78.109v-156.219zM807.28 456.127l-135.45 78.109 135.45 78.109v-156.219z" />
<glyph unicode="&#xe91a;" glyph-name="SYNC" d="M426.556 494.85l172.549-139.062v43.145l-172.549 139.058zM512.652 958.695c-282.41 0-511.348-228.938-511.348-511.352 0-282.405 228.938-511.343 511.348-511.343s511.348 228.938 511.348 511.343c0 282.414-228.938 511.352-511.348 511.352zM515.529 125.875c-181.119 0-257.299 145.014-257.299 253.326 0 74.803 0 134.466 0 134.466l167.049-134.466h-105.097c0-82.303 67.768-191.369 187.703-191.369 140.733 0 195.040 115.803 195.040 191.369l58.281-47.724c0.005-41.772-66.693-205.602-245.677-205.602zM662.9 412.24c0 0 9.175-108.759-62.873-153.277-72.049-44.513-123.908-29.373-166.588-5.96-42.68 23.404-64.25 74.952-64.25 84.895h69.764c0 0 15.596-39.93 64.241-44.504 48.649-4.597 66.088 22.248 66.088 22.248l-205.597 165.902c0 0-7.347 98.667 50.939 145.014 58.281 46.356 119.772 47.268 170.725 19.737 50.93-27.535 72.049-88.11 72.049-88.11h-69.303c0 0-16.061 35.798-60.575 43.141-44.518 7.338-70.224-22.026-70.224-22.026l205.606-167.058zM767.075 381.034l-167.045 134.466h105.088c0 82.303-67.768 191.369-187.689 191.369-140.742 0-195.049-115.803-195.049-191.369l-58.281 47.724c0 41.768 66.698 205.602 245.677 205.602 181.124 0 257.299-145.018 257.299-253.33 0-74.803 0-134.461 0-134.461z" />
<glyph unicode="&#xe91b;" glyph-name="SYNC-alt" d="M540.219 693.227c70.897-11.695 96.473-68.712 96.473-68.712h110.371c0 0-33.627 96.477-114.756 140.336s-179.078 42.396-271.893-31.423c-92.833-73.828-81.134-230.97-81.134-230.97l327.456-264.226c0 0-27.779-42.757-105.264-35.451-77.476 7.311-102.32 70.902-102.32 70.902h-111.098c0-15.84 34.354-97.945 102.329-135.215 67.971-37.284 150.572-61.401 265.319 9.496 114.756 70.906 100.139 244.123 100.139 244.123l-327.451 266.055c0 0 40.933 46.78 111.83 35.085zM654.234 370.892v-68.712l-274.815 221.469v68.707l274.815-221.465zM511.957 960c-285.051 0-391.282-260.93-391.282-327.442l92.829-76.013c0 120.355 86.489 304.784 310.64 304.784 191.008 0 298.932-173.705 298.932-304.784h-167.374l266.055-214.159c0 0 0 95.019 0 214.159 0 172.49-121.339 403.455-409.8 403.455zM508.954 34.676c-191.017 0-298.95 173.709-298.95 304.788h167.383l-266.055 214.15c0 0 0-95.014 0-214.15 0-172.499 121.33-403.469 409.791-403.469 285.060 0 391.286 260.934 391.286 327.451l-92.829 76.018c0.005-120.355-86.489-304.788-310.627-304.788z" />
<glyph unicode="&#xe91c;" glyph-name="SYS" d="M557.667 249.968v135.473c19.29 13.592 31.983 35.952 31.983 61.36 0 41.47-33.631 75.119-75.133 75.119-41.483 0-75.119-33.649-75.119-75.119 0-24.803 12.169-46.649 30.719-60.322v-141.925l-79.124-101.503c0 0 61.88-27.779 123.529-27.779 61.658 0 123.949 26.095 123.949 26.095l-80.804 108.601zM511.998 960c-282.78 0-512.002-229.227-512.002-512.002 0-282.766 229.227-511.998 512.007-511.998 282.775 0 512.002 229.236 512.002 511.998-0.005 282.775-229.231 512.002-512.007 512.002zM514.725 860.516c14.775 0 26.772-12.020 26.772-26.777 0-14.761-11.993-26.777-26.772-26.777-14.761 0-26.754 12.020-26.754 26.777s11.993 26.777 26.754 26.777zM511.998-29.71c-263.838 0-477.73 213.856-477.73 477.707 0 245.88 185.766 448.262 424.588 474.691v-16.337c-11.054-2.055-19.462-11.7-19.462-23.336 0-13.117 10.67-23.787 23.792-23.787 13.117 0 23.787 10.67 23.787 23.787 0 11.636-8.412 21.286-19.462 23.336v17.231c13.23 1.224 26.614 1.892 40.147 2.009v-53.68c-18.066-3.35-31.82-19.15-31.82-38.174 0-21.448 17.443-38.883 38.887-38.883 21.453 0 38.901 17.439 38.901 38.883 0 19.019-13.75 34.819-31.82 38.174v53.54c13.37-0.257 26.65-0.939 39.727-2.285v-16.816c-11.040-2.055-19.462-11.7-19.462-23.336 0-13.117 10.675-23.787 23.796-23.787s23.783 10.67 23.783 23.787c0 11.636-8.408 21.286-19.462 23.336v15.709c236.379-28.732 419.521-229.918 419.521-474.063 0-263.851-213.856-477.707-477.712-477.707zM463.186 899.394c9.026 0 16.355-7.36 16.355-16.373 0-9.035-7.333-16.396-16.355-16.396-9.035 0-16.373 7.36-16.373 16.396 0 9.013 7.338 16.373 16.373 16.373zM565.867 899.394c9.022 0 16.355-7.36 16.355-16.373 0-9.035-7.333-16.396-16.355-16.396-9.035 0-16.378 7.36-16.378 16.396 0 9.013 7.342 16.373 16.378 16.373zM470.41 550.86h0.009c13.551 5.762 28.461 8.945 44.098 8.945 15.289 0 29.856-3.080 43.15-8.584v80.194l147.732 220.133c-28.601 13.736-58.954 24.411-90.535 31.847l-101.318-150.988-101.729 151.597c-31.698-7.256-62.119-17.791-90.855-31.387l149.443-222.675v-79.084zM439.398 362.534c-23.191 20.726-37.876 50.745-37.876 84.272 0 13.984 2.655 27.341 7.315 39.704h-254.166c0 0 6.949 68.183 30.299 123.105 23.358 54.93 86.493 100.383 86.493 100.383l75.751-106.063v-61.875h92.183v77.034l-150.383 216.742c-134.095-77.282-224.445-221.952-224.445-387.832 0-15.131 0.772-30.086 2.244-44.82h281.665v-116.169l-84.597-102.275c0 0-39.989 40.413-64.39 77.873-24.401 37.465-41.249 102.686-41.249 102.686h-85.915c23.629-126.378 100.315-234.085 206.153-298.963l160.917 199.845v96.355zM957.167 403.177c1.472 14.738 2.235 29.689 2.235 44.82 0 164.38-88.706 307.99-220.805 385.741l-148.947-214.646v-77.029h92.183v61.871l75.747 106.063c0 0 63.135-45.453 86.493-100.383 23.354-54.926 30.303-123.105 30.303-123.105h-254.166c4.655-12.368 7.311-25.725 7.311-39.704 0-33.523-14.68-63.546-37.876-84.272v-96.36l159.179-197.718c104.108 65.108 179.444 171.799 202.825 296.837h-80.84c0 0-16.856-65.221-41.258-102.686-24.397-37.46-64.39-77.873-64.39-77.873l-84.597 102.275v116.169h276.603zM585.094 77.568h54.903v29.838c-13.099-5.215-32.425-12.025-54.903-17.443v-12.395zM518.057 77.568h54.89v9.672c-17.249-3.545-35.911-6.055-54.89-6.317v-3.355zM518.057 65.458h54.89v-27.86h-54.89v27.86zM585.094 65.458h54.903v-27.86h-54.903v27.86zM652.112 112.455v-34.886h35.55l-29.409 37.709c0 0-2.253-1.088-6.141-2.822zM652.112 65.458v-27.86h37.979c7.125 3.102 14.183 6.34 21.11 9.789l-14.102 18.071h-44.987zM311.999 47.812c7.184-3.599 14.486-6.999 21.886-10.214h37.998v27.86h-45.371l-14.513-17.646zM451.035 77.568h54.908v3.518c-18.893 0.664-37.6 3.409-54.908 7.143v-10.661zM585.094 6.689c18.708 3.102 37.049 7.243 54.903 12.562v6.236h-54.903v-18.798zM336.455 77.568h35.428v35.749c-2.804 1.183-4.457 1.96-4.457 1.96l-30.971-37.709zM518.057 0.774c18.595 0.257 36.905 1.644 54.89 4.114v20.604h-54.89v-24.718zM383.998 65.458h54.908v-27.86h-54.908v27.86zM451.035 65.458h54.908v-27.86h-54.908v27.86zM451.035 4.888c17.981-2.47 36.3-3.856 54.908-4.114v24.718h-54.908v-20.604zM383.998 77.568h54.908v13.452c-22.717 5.604-42.075 12.395-54.908 17.366v-30.818zM383.998 19.292c17.854-5.342 36.191-9.501 54.908-12.589v18.784h-54.908v-6.195z" />
<glyph unicode="&#xe91d;" glyph-name="SYS-alt" d="M557.261 816.711v-12.214c8.606-1.598 15.145-9.099 15.145-18.152 0-10.2-8.29-18.5-18.504-18.5-10.2 0-18.5 8.299-18.5 18.5 0 9.053 6.543 16.558 15.131 18.152v13.077c-10.169 1.048-20.5 1.58-30.899 1.779v-41.641c14.052-2.605 24.745-14.901 24.745-29.689 0-16.68-13.564-30.244-30.254-30.244-16.676 0-30.244 13.564-30.244 30.244 0 14.788 10.693 27.084 24.745 29.689v41.745c-10.521-0.090-20.929-0.61-31.224-1.558v-13.402c8.593-1.598 15.14-9.099 15.14-18.152 0-10.2-8.299-18.5-18.504-18.5s-18.504 8.299-18.504 18.5c0 9.053 6.543 16.558 15.14 18.152v12.702c-185.748-20.55-330.228-177.958-330.228-369.197 0-205.214 166.358-371.545 371.567-371.545 205.214 0 371.545 166.331 371.545 371.545 0 189.893-142.44 346.371-326.295 368.709zM434.088 787.117l79.124-117.912 78.795 117.433c24.569-5.78 48.166-14.088 70.418-24.767l-114.9-171.212v-62.372c-10.34 4.285-21.67 6.674-33.554 6.674-12.165 0-23.76-2.47-34.299-6.949h-0.009v61.5l-116.237 173.186c22.351 10.58 46.012 18.775 70.662 24.42zM170.043 383.68h66.824c0 0 13.104-50.727 32.082-79.869 18.978-29.134 50.081-60.557 50.081-60.557l65.799 79.54v90.354h-219.072c-1.142 11.456-1.743 23.087-1.743 34.855 0 129.015 70.269 241.536 174.563 301.646l116.959-168.571v-59.915h-71.692v48.126l-58.918 82.488c0 0-49.106-35.351-67.271-78.072-18.161-42.712-23.566-95.746-23.566-95.746h197.677c-3.626-9.622-5.689-20.012-5.689-30.886 0-26.077 11.42-49.426 29.459-65.542v-74.938l-125.155-155.435c-82.317 50.46-141.957 134.231-160.339 232.523zM403.031 128.805h-29.558c-5.753 2.502-11.438 5.148-17.023 7.938l11.289 13.731h35.288v-21.67zM403.031 159.903h-27.558l24.085 29.314c0 0 1.287-0.596 3.468-1.517v-27.797zM455.157 104.783c-14.558 2.389-28.818 5.631-42.707 9.789v4.818h42.707v-14.607zM455.157 128.805h-42.707v21.67h42.707v-21.67zM455.157 159.903h-42.707v23.968c9.979-3.87 25.034-9.148 42.707-13.501v-10.467zM507.297 100.164c-14.472 0.194-28.723 1.282-42.707 3.206v16.021h42.707v-19.227zM507.297 128.805h-42.707v21.67h42.707v-21.67zM507.297 159.903h-42.707v8.29c13.461-2.903 28.009-5.039 42.707-5.554v-2.736zM417.891 210.824l61.541 78.953v110.371c-14.427 10.643-23.896 27.626-23.896 46.92 0 32.258 26.163 58.421 58.43 58.421 32.276 0 58.434-26.163 58.434-58.421 0-19.755-9.871-37.158-24.88-47.724v-105.368l62.851-84.466c0 0-48.451-20.297-96.405-20.297s-96.075 21.611-96.075 21.611zM559.41 103.37c-13.989-1.924-28.231-3.012-42.689-3.206v19.227h42.689v-16.021zM559.41 128.805h-42.689v21.67h42.689v-21.67zM559.41 159.903h-42.689v2.605c14.761 0.203 29.269 2.145 42.689 4.908v-7.514zM611.559 114.541c-13.885-4.145-28.154-7.369-42.707-9.771v14.621h42.707v-4.85zM611.559 128.805h-42.707v21.67h42.707v-21.67zM611.559 159.903h-42.707v9.631c17.484 4.226 32.516 9.514 42.707 13.573v-23.205zM650.518 128.805h-29.54v21.67h34.99l10.968-14.052c-5.378-2.687-10.878-5.206-16.418-7.618zM620.978 159.903v27.124c3.030 1.35 4.782 2.19 4.782 2.19l22.866-29.314h-27.648zM708.903 243.254c0 0 31.111 31.423 50.085 60.557 18.983 29.143 32.087 79.869 32.087 79.869h62.887c-18.188-97.254-76.785-180.234-157.756-230.875l-123.805 153.787v74.938c18.035 16.116 29.454 39.465 29.454 65.542 0 10.878-2.068 21.263-5.685 30.886h197.677c0 0-5.405 53.034-23.571 95.746-18.166 42.721-67.267 78.072-67.267 78.072l-58.922-82.493v-48.126h-71.692v59.92l115.844 166.945c102.745-60.475 171.741-172.17 171.741-300.020 0-11.767-0.601-23.399-1.747-34.855h-215.134v-90.354l65.804-79.54zM493.317 748.022c0-11.478 9.329-20.83 20.807-20.83 11.492 0 20.816 9.347 20.816 20.83 0 11.474-9.324 20.821-20.816 20.821-11.478 0-20.807-9.347-20.807-20.821zM461.307 786.345c0-7.026 5.708-12.747 12.734-12.747 7.022 0 12.72 5.721 12.72 12.747 0 7.017-5.698 12.738-12.72 12.738-7.026 0.005-12.734-5.721-12.734-12.738zM511.998 960c-282.766 0-511.998-229.231-511.998-511.998 0-282.775 229.231-512.002 512.002-512.002s511.998 229.231 511.998 512.002c-0.005 282.766-229.231 511.998-512.002 511.998zM512.007 49.785c-219.938 0-398.222 178.288-398.222 398.217 0 219.934 178.283 398.222 398.222 398.222 219.934 0 398.217-178.288 398.217-398.222 0.005-219.929-178.283-398.217-398.217-398.217zM541.159 786.345c0-7.026 5.717-12.747 12.738-12.747 7.031 0 12.725 5.721 12.725 12.747 0 7.017-5.698 12.738-12.725 12.738-7.022 0.005-12.738-5.721-12.738-12.738z" />
<glyph unicode="&#xe91e;" glyph-name="TX" d="M512.201 960c-282.432 0-512.201-229.764-512.201-512.196 0-282.423 229.773-512.201 512.201-512.201 282.419 0 512.187 229.778 512.187 512.201 0 282.432-229.769 512.196-512.187 512.196zM512.201-31.742c-264.42 0-479.545 215.125-479.545 479.541 0 264.425 215.125 479.545 479.545 479.545 264.416 0 479.536-215.121 479.536-479.545 0-264.416-215.121-479.541-479.536-479.541zM615.885 732.701c0-57.263-46.421-103.684-103.684-103.684s-103.684 46.421-103.684 103.684c0 57.263 46.421 103.684 103.684 103.684s103.684-46.421 103.684-103.684zM347.884 332.885c0-57.263-46.421-103.684-103.684-103.684s-103.684 46.421-103.684 103.684c0 57.263 46.421 103.684 103.684 103.684s103.684-46.421 103.684-103.684zM263.147 473.826c8.466 81.603 56.317 151.638 124.121 190.845-11.027 20.211-17.303 43.389-17.303 68.030 0 2.849 0.108 5.676 0.275 8.48-104.524-50.785-177.994-155.806-183.616-278.242 17.606 7.807 37.076 12.183 57.581 12.183 6.43 0 12.743-0.47 18.942-1.296zM761.174 474.391c4.75 0.479 9.555 0.732 14.422 0.732 22.32 0 43.434-5.157 62.223-14.309-4.863 123.339-78.542 229.29-183.661 280.369 0.154-2.804 0.266-5.631 0.266-8.48 0-24.641-6.272-47.819-17.294-68.030 67.65-39.126 115.419-108.922 124.044-190.281zM662.019 247.291c-41.809-31.319-93.682-49.896-149.818-49.896-57.477 0-110.443 19.511-152.749 52.194-15.271-21.092-36.164-37.83-60.503-47.995 57.211-49.611 131.756-79.752 213.256-79.752 80.818 0 154.794 29.63 211.824 78.506-24.803 9.663-46.234 26.045-62.011 46.943zM879.28 332.894c0-57.263-46.421-103.684-103.684-103.684s-103.684 46.421-103.684 103.684c0 57.263 46.421 103.684 103.684 103.684s103.684-46.421 103.684-103.684zM512.201 891.022c-244.399 0-443.227-198.824-443.227-443.218 0-244.399 198.829-443.218 443.227-443.218 244.385 0 443.214 198.82 443.214 443.218 0 244.394-198.833 443.218-443.214 443.218zM775.596 190.658c-4.303 0-8.566 0.23-12.774 0.601-64.729-63.248-153.2-102.297-250.621-102.297-97.66 0-186.316 39.235-251.077 102.74-5.554-0.664-11.189-1.039-16.919-1.039-78.551 0-142.237 63.681-142.237 142.228 0 44.044 20.026 83.405 51.458 109.486-0.027 1.811-0.068 3.617-0.068 5.428 0 150.545 93.203 279.732 224.933 332.906 19.696 54.93 72.202 94.219 133.906 94.219 61.695 0 114.205-39.293 133.897-94.219 131.729-53.174 224.937-182.356 224.937-332.906 0-3.129-0.041-6.245-0.117-9.351 28.809-26.023 46.92-63.668 46.92-105.562 0-78.551-63.681-142.232-142.237-142.232z" />
<glyph unicode="&#xe91f;" glyph-name="TX-alt" d="M512.029 805.116c-196.684 0-356.707-160.014-356.707-356.707 0-196.688 160.023-356.702 356.707-356.702 196.688 0 356.698 160.018 356.698 356.702 0 196.693-160.009 356.707-356.698 356.707zM512.029 118.727c-181.796 0-329.691 147.895-329.691 329.686 0 181.787 147.895 329.682 329.691 329.682 181.787 0 329.686-147.895 329.686-329.682 0-181.792-147.899-329.686-329.686-329.686zM778.861 441.45c0.059 2.316 0.090 4.628 0.090 6.958 0 111.988-69.33 208.081-167.32 247.627-14.648 40.856-53.711 70.084-99.602 70.084-45.9 0-84.949-29.224-99.606-70.084-97.985-39.546-167.311-135.644-167.311-247.627 0-1.35 0.032-2.691 0.050-4.037-23.381-19.403-38.277-48.677-38.277-81.441 0-58.425 47.367-105.797 105.797-105.797 4.267 0 8.457 0.28 12.585 0.768 48.175-47.227 114.128-76.419 186.763-76.419 72.477 0 138.281 29.057 186.434 76.099 3.125-0.284 6.304-0.447 9.501-0.447 58.43 0 105.792 47.367 105.792 105.797 0 31.166-13.465 59.166-34.895 78.519zM617.831 660.328c0 2.122-0.090 4.222-0.203 6.308 78.194-37.993 132.994-116.806 136.615-208.551-13.98 6.809-29.671 10.643-46.279 10.643-3.617 0-7.202-0.181-10.729-0.542-6.416 60.516-41.949 112.43-92.278 141.537 8.209 15.032 12.874 32.276 12.874 50.605zM512.029 737.452c42.594 0 77.124-34.525 77.124-77.128 0-42.59-34.53-77.128-77.124-77.128-42.603 0-77.128 34.539-77.128 77.128 0.005 42.603 34.53 77.128 77.128 77.128zM406.436 666.636c-0.126-2.086-0.203-4.19-0.203-6.308 0-18.328 4.664-35.568 12.865-50.6-50.438-29.165-86.024-81.265-92.318-141.961-4.61 0.619-9.315 0.962-14.097 0.962-15.249 0-29.73-3.256-42.829-9.053 4.186 91.077 58.836 169.18 136.583 206.961zM312.681 285.816c-42.59 0-77.124 34.525-77.124 77.119s34.534 77.124 77.124 77.124c42.599 0 77.128-34.53 77.128-77.124s-34.53-77.119-77.128-77.119zM512.029 205.947c-60.62 0-116.070 22.424-158.623 59.324 18.102 7.568 33.649 20.022 45.005 35.699 31.464-24.311 70.865-38.824 113.618-38.824 41.759 0 80.348 13.826 111.446 37.112 11.74-15.538 27.675-27.734 46.121-34.909-42.414-36.367-97.448-58.403-157.567-58.403zM707.964 285.816c-42.599 0-77.124 34.525-77.124 77.119s34.525 77.124 77.124 77.124c42.594 0 77.124-34.53 77.124-77.124s-34.534-77.119-77.124-77.119zM512.029 960c-282.785 0-512.029-229.245-512.029-512.029 0-282.789 229.245-512.034 512.034-512.034s512.029 229.245 512.029 512.034c-0.005 282.785-229.245 512.029-512.034 512.029zM512.029 67.413c-210.077 0-380.991 170.914-380.991 380.996 0 210.086 170.914 380.991 380.991 380.991s380.991-170.91 380.991-380.991c0-210.081-170.91-380.996-380.991-380.996z" />
<glyph unicode="&#xe920;" glyph-name="UNITY" d="M511.962 960.081c-282.794 0-512.043-229.249-512.043-512.043s229.249-512.038 512.043-512.038 512.038 229.249 512.038 512.038-229.245 512.043-512.038 512.043zM191.721 325.48c-29.951 35.767-47.227 76.925-47.227 120.829 0 34.638 10.702 67.547 29.843 97.457 1.531-18.96 7.229-43.037 28.307-64.25 31.775-32.042 89.045-47.597 174.956-47.597 61.139 0 105.228-12.345 127.512-35.654 18.482-19.403 17.425-42.043 16.978-52.009-0.072-0.921-7.663-89.451-140.579-89.451-83.021 0.009-147.091 30.204-189.789 70.676zM511.98 199.476c-28.93 0-56.94 2.474-83.933 6.719 119.957 19.195 146.431 110.809 146.431 138.132 1.644 34.855-8.986 64.481-31.491 88.074-32.863 34.435-88.494 51.896-165.383 51.896-87.514 0-123.272 17.461-137.852 32.105-13.84 13.998-13.736 31.125-13.582 50.009 0 18.992 25.783 54.858 123.376 54.858 76.821 0 150.97-34.85 226.68-106.578 30.606-29.021 134.267-157.865 199.213-240.235-66.765-46.202-160.059-74.979-263.458-74.979zM790.127 340.209c-56.294 70.789-146.842 183.065-177.886 212.461-80.795 76.568-161.662 115.636-246.548 120.093 44.852 13.077 94.237 20.464 146.282 20.464 111.261 0 210.759-33.392 278.152-85.879v-267.138zM842.497 338.999v214.619c23.417-32.457 36.936-68.806 36.936-107.31-0.005-38.49-13.524-74.807-36.936-107.31z" />
<glyph unicode="&#xe921;" glyph-name="UNITY-alt" d="M972.537 605.619v-299.085c32.638 45.29 51.463 95.904 51.463 149.543 0 53.653-18.829 104.307-51.463 149.543zM651.665 604.3c43.258-40.964 169.442-197.433 247.885-296.073v372.267c-93.912 73.137-232.568 119.673-387.606 119.673-72.532 0-141.352-10.286-203.854-28.515 118.291-6.204 230.988-60.656 343.576-167.352zM601.476 551.37c-105.508 99.963-208.84 148.522-315.887 148.522-136.001 0-171.935-49.982-171.935-76.447-0.208-26.316-0.366-50.189 18.924-69.691 20.315-20.405 70.148-44.739 192.101-44.739 107.152 0 184.668-24.334 230.473-72.324 31.351-32.877 46.175-74.166 43.881-122.734 0-38.079-36.9-165.74-204.058-192.494 37.618-5.92 76.654-9.365 116.968-9.365 144.097 0 274.101 40.097 367.142 104.497-90.508 114.783-234.957 294.344-277.61 334.775zM330.129 189.213c185.228 0 195.808 123.371 195.916 124.649 0.614 13.894 2.091 45.443-23.665 72.473-31.044 32.484-92.49 49.693-177.696 49.693-119.723 0-199.529 21.674-243.812 66.323-29.373 29.558-37.307 63.108-39.442 89.528-26.677-41.678-41.592-87.541-41.592-135.807 0-61.189 24.076-118.544 65.813-168.386 59.505-56.398 148.784-98.473 264.479-98.473z" />
<glyph unicode="&#xe922;" glyph-name="USDT" d="M1024.479 473.867c0 64.323-175.023 117.989-407.61 130.37l-0.018 102.487h290.411v213.292h-794.105v-213.292h290.389v-102.988c-228.351-13.23-399.166-66.336-399.166-129.869 0-63.541 170.815-116.652 399.166-129.86v-368.027h213.305v367.526c232.604 12.354 407.628 66.038 407.628 130.361zM514.427 410.501c-249.65 0-452.037 38.639-452.037 86.331 0 40.382 145.122 74.284 341.156 83.716v-24.307h0.023v-99.606c35.342-1.982 72.487-3.021 110.859-3.021 35.333 0 69.646 0.899 102.447 2.542v124.762c200.283-8.855 349.6-43.114 349.6-84.087-0.005-47.692-202.396-86.331-452.046-86.331z" />
<glyph unicode="&#xe923;" glyph-name="USDT-alt" d="M574.948 506.974v-76.668c-20.157-1.011-41.24-1.567-62.945-1.567-23.584 0-46.41 0.646-68.125 1.856v61.211h-0.014v14.933c-120.463-5.798-209.639-26.628-209.639-51.44 0-29.31 124.364-53.052 277.781-53.052 153.408 0 277.781 23.742 277.781 53.052-0.005 25.178-91.758 46.234-214.841 51.675zM512.002 960.005c-282.766 0-512.002-229.222-512.002-511.998 0-282.762 229.236-512.007 512.002-512.007s511.998 229.245 511.998 512.007c0 282.775-229.236 511.998-511.998 511.998zM574.939 361.080v-225.845h-131.079v226.152c-140.318 8.119-245.284 40.756-245.284 79.806 0 39.041 104.966 71.674 245.284 79.806v63.284h-178.446v131.074h487.989v-131.074h-178.464l0.009-62.981c142.932-7.604 250.49-40.589 250.49-80.109-0.005-39.528-107.558-72.518-250.499-80.113z" />
<glyph unicode="&#xe924;" glyph-name="VIOR" d="M512.088 959.824c-282.721 0-511.912-229.191-511.912-511.912s229.191-511.912 511.912-511.912c282.721 0 511.912 229.191 511.912 511.912s-229.191 511.912-511.912 511.912zM170.237 447.338c0 188.8 153.056 341.842 341.847 341.842 32.173 0 63.302-4.448 92.815-12.765 86.164-35.699 146.86-120.034 146.86-218.155 0-28.113-5.008-55.093-14.142-80.127-46.739 74.243-129.855 123.674-224.644 123.674-160.524 0-264.655-136.764-264.655-262.284 0-63.573 22.839-121.854 60.805-167.252-84.245 62.245-138.886 162.276-138.886 275.068zM619.998 568.944l-107.915-262.235-107.919 262.235h56.497l51.422-137.166 51.431 137.166h56.484zM512.084 105.492c-19.922 0-39.451 1.725-58.443 4.999-103.065 26.181-179.467 118.941-179.467 229.028 0 28.118 5.030 55.070 14.169 80.091 46.739-74.216 129.842-123.633 224.63-123.633 139.672 0 264.637 117.361 264.637 262.28 0 58.452-19.349 112.394-51.973 155.995 78.199-62.643 128.288-158.926 128.288-266.917 0.005-188.791-153.042-341.842-341.842-341.842z" />
<glyph unicode="&#xe925;" glyph-name="VIOR-alt" d="M673.728 629.957h-84.583l-77.011-205.394-77.002 205.394h-84.592l161.594-392.663zM117.185 286.426c0 187.951 155.914 392.731 396.276 392.731 141.939 0 266.389-74.008 336.369-185.183 13.682 37.487 21.177 77.887 21.177 119.98 0 146.928-90.882 273.198-219.907 326.661-44.188 12.449-90.797 19.109-138.972 19.109-282.681 0.009-511.862-229.159-511.862-511.858 0-168.887 81.82-318.664 207.959-411.886-56.85 67.976-91.040 155.255-91.040 250.445zM831.908 847.538c48.844-65.289 77.815-146.061 77.815-233.58 0-216.994-187.129-392.727-396.262-392.727-141.93 0-266.371 73.995-336.356 185.12-13.673-37.465-21.205-77.828-21.205-119.926 0-164.846 114.399-303.736 268.714-342.939 28.443-4.904 57.68-7.487 87.514-7.487 282.703 0 511.867 229.173 511.867 511.867 0.005 161.707-74.997 305.877-192.087 399.671z" />
<glyph unicode="&#xe926;" glyph-name="VNL" d="M997.178 588.184c-17.43 0-81.87 0-120.73 0l79.463 221.022c0 0-131.445 0-169.614 0s-94.355-25.436-111.301-72.080c-16.965-46.64-156.898-433.578-156.898-433.578s-143.113 397.531-155.837 432.512c-12.716 34.986-48.758 73.146-110.245 73.146-61.478 0-170.675 0-170.675 0l79.558-221.022c-36.544 0-111.897 0-130.971 0-25.44 0-32.593-17.497-26.235-34.191s22.523-56.524 29.685-73.218c7.148-16.698 18.811-22.184 35.505-22.184 12.476 0 96.775 0 138.66 0l16.314-45.331c-38.905 0-102.894 0-120.255 0-25.44 0-32.597-17.484-26.235-34.182 6.353-16.694 22.523-56.524 29.68-73.213 7.157-16.698 18.816-22.193 35.514-22.193 11.478 0 83.843 0 127.945 0l64.192-178.351c0 0 62.548-46.645 183.919-46.645 121.384 0 184.998 48.767 184.998 48.767l63.356 176.229c44.247 0 106.953 0 117.578 0 16.694 0 28.357 5.495 35.514 22.193 7.152 16.689 23.322 56.52 29.676 73.213 6.362 16.698-0.786 34.182-26.239 34.182-15.899 0-70.911 0-109.942 0l16.278 45.331c44.062 0 116.86 0 128.383 0 16.694 0 28.357 5.486 35.514 22.184 7.148 16.694 23.322 56.524 29.685 73.218 6.362 16.689-0.799 34.191-26.239 34.191z" />
<glyph unicode="&#xe927;" glyph-name="VNL-alt" d="M511.998 960c-282.771 0-511.998-229.231-511.998-511.993 0-282.775 229.227-512.007 512.002-512.007 282.771 0 512.002 229.231 512.002 512.007-0.005 282.762-229.236 511.993-512.007 511.993zM833.006 489.657c-4.001-10.498-14.174-35.55-18.671-46.053-4.502-10.503-11.835-13.953-22.333-13.953-7.247 0-53.034 0-80.745 0l-10.25-28.511c24.555 0 59.157 0 69.154 0 15.998 0 20.505-11 16.499-21.503-4.001-10.498-14.165-35.555-18.671-46.049-4.497-10.503-11.83-13.957-22.333-13.957-6.683 0-46.125 0-73.954 0l-39.849-110.845c0 0-40.007-30.669-116.359-30.669-76.338 0-115.677 29.337-115.677 29.337l-40.373 112.177c-27.743 0-73.259 0-80.474 0-10.498 0-17.836 3.454-22.338 13.957-4.502 10.494-14.671 35.55-18.667 46.049-4.001 10.503 0.497 21.503 16.499 21.503 10.918 0 51.169 0 75.638 0l-10.259 28.511c-26.343 0-79.368 0-87.211 0-10.503 0-17.836 3.45-22.333 13.953-4.502 10.503-14.671 35.555-18.667 46.053-4.001 10.503 0.497 21.507 16.499 21.507 11.993 0 59.392 0 82.375 0l-50.036 139.013c0 0 68.68 0 107.35 0s61.338-24.004 69.335-46.008c8.001-21.999 98.017-272.038 98.017-272.038s88.015 243.374 98.681 272.711c10.661 29.337 46.003 45.335 70.003 45.335 24.004 0 106.682 0 106.682 0l-49.982-139.017c24.447 0 64.982 0 75.941 0 16.007 0 20.505-11.004 16.508-21.503z" />
<glyph unicode="&#xe928;" glyph-name="VPN" d="M512.088 959.824c-282.721 0-511.912-229.191-511.912-511.912s229.191-511.912 511.912-511.912c282.721 0 511.912 229.191 511.912 511.912s-229.191 511.912-511.912 511.912zM448.258 686.702c0 2.307 1.878 4.172 4.186 4.172h53.44c2.312 0 4.19-1.869 4.19-4.172v-53.44c0-2.312-1.878-4.199-4.19-4.199h-53.44c-2.307 0-4.186 1.887-4.186 4.199v53.44zM448.258 601.225c0 3.635 2.94 6.574 6.579 6.574h83.951c3.626 0 6.565-2.94 6.565-6.574v-83.933c0-3.639-2.94-6.588-6.565-6.588h-83.951c-3.639 0-6.579 2.949-6.579 6.588v83.933zM360.834 746.519c0 1.761 1.422 3.17 3.165 3.17h40.463c1.743 0 3.17-1.413 3.17-3.17v-40.454c0-1.747-1.427-3.17-3.17-3.17h-40.463c-1.743 0-3.165 1.418-3.165 3.17v40.454zM360.834 686.702c0 2.307 1.878 4.172 4.186 4.172h53.445c2.307 0 4.177-1.869 4.177-4.172v-53.44c0-2.312-1.869-4.199-4.177-4.199h-53.445c-2.307 0-4.186 1.887-4.186 4.199v53.44zM360.834 603.252c0 2.506 2.036 4.543 4.543 4.543h57.992c2.497 0 4.538-2.036 4.538-4.543v-57.974c0-2.52-2.041-4.552-4.538-4.552h-57.992c-2.506 0-4.543 2.032-4.543 4.552v57.974zM295.608 739.262c0 1.197 0.962 2.167 2.163 2.167h27.702c1.197 0 2.163-0.975 2.163-2.167v-27.689c0-1.206-0.971-2.181-2.163-2.181h-27.702c-1.197 0-2.163 0.975-2.163 2.181v27.689zM295.608 687.565c0 1.824 1.481 3.31 3.319 3.31h42.4c1.838 0 3.328-1.486 3.328-3.31v-42.405c0-1.842-1.49-3.328-3.328-3.328h-42.4c-1.842 0-3.319 1.49-3.319 3.328v42.405zM249.56 774.551c0 1.197 0.971 2.163 2.163 2.163h27.698c1.197 0 2.163-0.966 2.163-2.163v-27.693c0-1.206-0.971-2.176-2.163-2.176h-27.698c-1.197 0-2.163 0.971-2.163 2.176v27.693zM304.775 476.829l140.137-140.132v140.132h100.771v-281.624h-96.098l-273.6 281.624h128.79zM506.986 120.474c-152.961 0-276.951 38.544-276.951 86.087 0 26.081 37.374 49.44 96.31 65.221-33.067-12.020-52.926-27.413-52.926-44.202 0-38.521 104.569-69.737 233.566-69.737 128.988 0 233.566 31.215 233.566 69.737 0 16.788-19.863 32.182-52.944 44.202 58.949-15.781 96.324-39.14 96.324-65.221 0-47.539-123.994-86.087-276.946-86.087zM738.551 356.546c-50.555 0-154.659 0-154.659 0v89.085c0 0 96.594 0 127.634 0 37.709 0 52.384 22.514 52.384 44.039 0 21.543-12.675 43.552-49.548 43.552-37.541 0-130.469 0-130.469 0v71.561c0 0 125.128 0 154.659 0 40.698 0 109.608-25.016 109.608-116.611 0.005-91.587-50.889-131.625-109.608-131.625z" />
<glyph unicode="&#xe929;" glyph-name="VPN-alt" d="M0.741 490.985h196.056l213.332-213.332v213.332h153.403v-428.724h-146.287zM621.696 685.772v-108.944c0 0 141.469 0 198.617 0 56.136 0 75.426-33.505 75.426-66.287 0-32.778-22.342-67.045-79.747-67.045-47.245 0-194.295 0-194.295 0v-135.626c0 0 158.488 0 235.44 0 89.397 0 166.864 60.954 166.864 200.382 0 139.446-104.903 177.525-166.864 177.525-44.951-0.005-235.44-0.005-235.44-0.005zM779.592 178.845c50.352-18.31 80.596-41.732 80.596-67.289 0-58.642-159.201-106.163-355.569-106.163-196.377 0-355.565 47.516-355.565 106.163 0 25.557 30.24 48.984 80.578 67.289-89.731-24.022-146.617-59.59-146.617-99.295 0-72.374 188.755-131.047 421.603-131.047s421.607 58.674 421.607 131.047c0 39.704-56.899 75.273-146.635 99.295zM384.233 595.183c0-3.829-3.093-6.922-6.904-6.922h-88.277c-3.825 0-6.918 3.098-6.918 6.922v88.254c0 3.816 3.093 6.918 6.918 6.918h88.273c3.811 0 6.904-3.107 6.904-6.918v-88.254zM563.031 552.576c0-5.54-4.475-10.033-9.997-10.033h-127.801c-5.54 0-10.015 4.493-10.015 10.033v127.774c0 5.531 4.475 10.006 10.015 10.006h127.801c5.522 0 9.997-4.475 9.997-10.006v-127.774zM509.325 729.121c0-3.522-2.863-6.389-6.376-6.389h-81.359c-3.518 0-6.371 2.867-6.371 6.389v81.35c0 3.518 2.854 6.367 6.371 6.367h81.359c3.513 0 6.376-2.849 6.376-6.367v-81.35zM376.232 729.121c0-3.522-2.854-6.389-6.362-6.389h-81.364c-3.513 0-6.371 2.867-6.371 6.389v81.35c0 3.518 2.858 6.367 6.371 6.367h81.364c3.509 0 6.362-2.849 6.362-6.367v-81.35zM353.379 839.952c0-2.669-2.167-4.822-4.822-4.822h-61.595c-2.66 0-4.822 2.154-4.822 4.822v61.582c0 2.673 2.163 4.827 4.822 4.827h61.595c2.655 0 4.822-2.158 4.822-4.827v-61.582zM257.503 747.228c0-2.8-2.267-5.066-5.066-5.066h-64.544c-2.8 0-5.057 2.267-5.057 5.066v64.562c0 2.777 2.258 5.044 5.057 5.044h64.544c2.8 0 5.066-2.267 5.066-5.044v-64.562zM231.593 848.333c0-1.833-1.472-3.314-3.292-3.314h-42.17c-1.824 0-3.296 1.486-3.296 3.314v42.156c0 1.824 1.472 3.301 3.296 3.301h42.17c1.82 0 3.292-1.477 3.292-3.301v-42.156zM161.5 902.049c0-1.833-1.472-3.305-3.296-3.305h-42.17c-1.824 0-3.296 1.472-3.296 3.305v42.156c0 1.824 1.472 3.296 3.296 3.296h42.17c1.824 0 3.296-1.472 3.296-3.296v-42.156z" />
<glyph unicode="&#xe92a;" glyph-name="VRC" d="M513.041 960c-283.349 0-513.041-229.683-513.041-513.041s229.692-513.041 513.041-513.041c283.358 0 513.041 229.683 513.041 513.041s-229.683 513.041-513.041 513.041zM513.041 600.223c27.228 0 49.313-22.081 49.313-49.309 0-27.224-22.085-49.3-49.313-49.3s-49.304 22.072-49.304 49.295c0 27.233 22.076 49.313 49.304 49.313zM736.452 266.996c-27.228 0-49.318 22.081-49.318 49.304 0 27.228 22.090 49.313 49.318 49.313 27.219 0 49.3-22.085 49.3-49.313s-22.076-49.304-49.3-49.304zM513.041 62.713l-311.015 605.779h162.552l149.547-306.68 146.301 306.68h163.635l-311.020-605.779z" />
<glyph unicode="&#xe92b;" glyph-name="VRC-alt" d="M755.308 947.072l-241.053-505.319-246.422 505.319h-267.834l512.458-998.149 512.476 998.149zM512.458 672.086c44.856 0 81.246 36.385 81.246 81.251s-36.39 81.251-81.246 81.251c-44.861 0-81.233-36.385-81.233-81.251s36.372-81.251 81.233-81.251zM880.576 448.002c-44.856 0-81.251-36.381-81.251-81.233 0-44.875 36.399-81.256 81.251-81.256 44.875 0 81.237 36.381 81.237 81.256 0.005 44.852-36.363 81.233-81.237 81.233z" />
<glyph unicode="&#xe92c;" glyph-name="VTC" d="M950.457 713.741l-412.419-583.834c0 0-7.974-12.187-24.144-12.187-16.183 0-26.736 12.892-26.736 12.892l-71.15 94.359 428.512 612.877c-89.442 76.162-205.363 122.152-332.044 122.152-283.033 0-512.476-229.444-512.476-512.476s229.444-512.476 512.476-512.476 512.476 229.444 512.476 512.476c0 97.493-27.228 188.628-74.496 266.217zM130.758 460.515l44.667 49.982 37.69-49.982h-82.357zM188.809 525.469l1.039 1.17h201.881l110.484-143.943-98.681-141.198-214.723 283.972z" />
<glyph unicode="&#xe92d;" glyph-name="VTC-alt" d="M972.804 816.093c-33.654 44.418-74.487 82.56-74.487 82.56l-534.399-764.475 90.774-120.386c0 0 13.465-16.445 34.11-16.445 20.636 0 30.804 15.551 30.804 15.551l506.15 715.243c0 0-19.299 43.529-52.953 87.952zM348.010 155.27l125.891 180.135-140.95 183.639h-257.566l-1.332-1.49zM56.994 498.449l-56.994-63.763h105.065z" />
<glyph unicode="&#xe92e;" glyph-name="XAI" d="M511.898 960c-282.712 0-511.898-229.186-511.898-511.898 0-282.721 229.186-511.907 511.903-511.907 282.721 0 511.907 229.186 511.907 511.907-0.005 282.712-229.191 511.898-511.912 511.898zM774.124 617.029l-34.986-34.995-34.99 34.995 34.99 34.995 34.986-34.995zM788.334 443.979l-34.99-34.981-128.605 128.605 34.981 35.004 128.614-128.627zM705.358 690.879l-209.788-209.792-35.013 34.977 209.819 209.815 34.981-34.999zM512.662 721.182l34.99-34.995-128.591-128.6-35.004 34.986 128.605 128.609zM339.634 706.977l34.995-34.986-34.995-34.999-34.99 34.999 34.99 34.986zM265.775 638.207l209.797-209.783-34.981-35.017-209.81 209.815 34.995 34.986zM270.466 480.5l128.6-128.6-34.981-35.004-128.609 128.627 34.99 34.977zM249.677 272.478l34.99 34.995 34.99-34.995-34.99-34.986-34.99 34.986zM318.443 198.614l209.801 209.801 35.008-34.977-209.824-209.815-34.986 34.99zM511.14 168.315l-34.995 35.004 128.605 128.595 34.999-34.977-128.609-128.623zM684.172 182.534l-34.995 34.99 34.995 34.986 34.995-34.986-34.995-34.99zM758.036 251.296l-209.801 209.797 34.977 35.004 209.819-209.819-34.995-34.981z" />
<glyph unicode="&#xe92f;" glyph-name="XAI-alt" d="M199.352 925.632l63.637-63.637-63.64-63.64-63.637 63.637 63.64 63.64zM577.688 887.825l-63.627 63.636-233.914-233.905 63.663-63.627zM482.963 514.799l381.555 381.555-63.618 63.645-381.614-381.596zM989.602 762.010l-63.637-63.637-63.64 63.64 63.637 63.637 63.64-63.64zM717.88 617.584l233.9-233.891 63.645 63.627-233.918 233.923zM642.359 542.1l-63.609-63.668 381.555-381.564 63.645 63.627zM825.993-28.123l-63.653 63.644 63.637 63.646 63.653-63.644-63.637-63.646zM447.648 9.606l63.632-63.636 233.909 233.909-63.659 63.623zM542.382 382.632l-381.56-381.551 63.627-63.65 381.601 381.596zM35.768 135.419l63.631 63.649 63.643-63.625-63.631-63.649-63.643 63.625zM307.457 279.851l-233.887 233.891-63.645-63.632 233.914-233.923zM446.596 419.004l-381.564 381.555-63.645-63.627 381.596-381.596z" />
<glyph unicode="&#xe930;" glyph-name="XBS" d="M565.257 496.557c0 12.923-10.521 23.44-23.435 23.44h-98.861v-46.879h98.861c12.914 0.005 23.435 10.516 23.435 23.44zM511.989 960c-282.762 0-511.989-229.227-511.989-511.989s229.231-511.993 511.993-511.993 511.993 229.231 511.993 511.993-229.231 511.989-511.998 511.989zM761.025 696.578c25.539-25.535 39.501-60.904 41.362-102.961-8.674 6.579-17.926 12.896-27.806 18.938-20.107 12.282-42.079 23.011-65.497 32.078-9.072 23.417-19.796 45.385-32.078 65.492-6.010 9.853-12.323 19.082-18.87 27.72 42.274-1.924 77.706-16.080 102.889-41.267zM742.692 490.845c9.415-15.384 17.836-30.967 25.174-46.627-7.338-15.664-15.759-31.242-25.165-46.627 1.156 15.357 1.743 30.917 1.743 46.627 0 15.714-0.587 31.269-1.752 46.627zM779.276 417.568c6.155-15.876 11.198-31.762 15.005-47.525 3.951-16.364 6.493-32.168 7.636-47.29-11.505-9.88-24.469-19.267-38.842-28.050-13.844-8.448-28.637-16.12-44.215-22.984 7.848 24.749 13.966 50.848 18.247 77.873 16.080 22.139 30.208 44.92 42.17 67.976zM737.111 538.844c-4.285 27.025-10.399 53.115-18.247 77.873 15.578-6.868 30.371-14.531 44.215-22.993 14.373-8.778 27.337-18.157 38.842-28.045-1.147-15.113-3.685-30.913-7.636-47.29-3.807-15.768-8.85-31.644-15.005-47.516-11.966 23.056-26.095 45.836-42.17 67.971zM675.394 610.942c-11.14 11.126-22.564 21.71-34.227 31.73 17.538-4.217 34.516-9.293 50.776-15.172 5.893-16.265 10.954-33.229 15.172-50.758-10.029 11.677-20.618 23.101-31.721 34.2zM707.115 311.699c-4.222-17.533-9.284-34.498-15.172-50.758-16.265-5.897-33.247-10.959-50.79-15.181 11.677 10.029 23.101 20.609 34.241 31.735 11.103 11.108 21.692 22.532 31.721 34.205zM658.181 698.623c8.453-13.831 16.111-28.632 22.984-44.215-24.74 7.839-50.812 13.957-77.815 18.242-22.112 16.089-44.789 30.168-67.637 42.070 32.322 12.616 64.3 20.432 94.472 22.686 9.853-11.483 19.231-24.429 27.996-38.783zM545.001 318.955c-1.048-0.131-2.1-0.23-3.179-0.23h-122.766c-13.194 0-23.891 10.688-23.891 23.891v201.276c0 13.194 10.697 23.891 23.891 23.891h122.766c39.271 0 71.218-31.951 71.218-71.227 0-17.488-6.34-33.514-16.843-45.927 14.043-13.975 22.749-33.301 22.749-54.637 0-41.452-32.891-75.367-73.945-77.038zM554.682 210.142c-15.222-9.266-30.615-17.543-46.008-24.79-15.402 7.247-30.795 15.524-46.008 24.79 15.154-1.124 30.506-1.707 46.008-1.707 15.493 0 30.841 0.582 46.008 1.707zM462.657 678.295c15.217 9.261 30.601 17.547 46.012 24.794 15.393-7.247 30.786-15.533 46.008-24.794-15.158 1.129-30.515 1.702-46.008 1.702-15.497 0-30.85-0.573-46.012-1.702zM508.674 801.11c36.092 0 70.96-15.122 101.999-43.524-33.207-4.448-67.637-14.626-101.999-29.847-34.372 15.222-68.806 25.399-102.009 29.847 31.039 28.402 65.903 43.524 102.009 43.524zM481.627 714.721c-22.862-11.903-45.525-25.986-67.637-42.070-27.011-4.281-53.084-10.399-77.819-18.242 6.868 15.583 14.531 30.38 22.988 44.215 8.76 14.355 18.13 27.3 27.987 38.783 30.181-2.253 62.155-10.069 94.481-22.686zM341.946 277.494c11.131-11.126 22.568-21.71 34.232-31.735-17.543 4.226-34.525 9.288-50.79 15.181-5.884 16.265-10.959 33.225-15.172 50.758 10.033-11.672 20.627-23.097 31.73-34.205zM310.216 576.742c4.213 17.524 9.288 34.494 15.172 50.758 16.265 5.879 33.243 10.954 50.781 15.172-11.659-10.020-23.097-20.604-34.227-31.73-11.099-11.108-21.692-22.528-31.726-34.2zM256.306 696.578c25.187 25.187 60.62 39.343 102.898 41.267-6.547-8.643-12.851-17.868-18.866-27.72-12.287-20.112-23.011-42.075-32.082-65.492-23.422-9.076-45.38-19.796-65.497-32.078-9.889-6.042-19.141-12.359-27.802-18.938 1.847 42.057 15.813 77.426 41.348 102.961zM274.634 397.592c-9.406 15.384-17.822 30.962-25.165 46.627 7.338 15.66 15.759 31.238 25.165 46.617-1.16-15.348-1.747-30.917-1.747-46.617 0-15.709 0.587-31.265 1.747-46.627zM280.229 349.597c4.276-27.025 10.395-53.124 18.242-77.873-15.578 6.863-30.371 14.535-44.215 22.984-14.373 8.783-27.337 18.166-38.828 28.050 1.142 15.118 3.671 30.926 7.627 47.29 3.802 15.763 8.846 31.649 15.014 47.521 11.952-23.056 26.072-45.836 42.161-67.971zM280.229 538.84c-16.089-22.135-30.208-44.911-42.165-67.967-6.164 15.872-11.207 31.748-15.014 47.525-3.956 16.369-6.489 32.168-7.627 47.281 11.492 9.884 24.46 19.267 38.828 28.045 13.844 8.462 28.637 16.125 44.215 22.993-7.839-24.758-13.957-50.853-18.238-77.878zM195.338 342.178c-28.429 31.039-43.565 65.93-43.565 102.045 0 36.11 15.136 70.996 43.565 102.040 1.477-10.765 3.549-21.787 6.272-33.049 5.531-22.907 13.479-46.017 23.634-68.992-10.155-22.979-18.102-46.094-23.634-68.992-2.718-11.266-4.795-22.288-6.272-33.053zM256.306 191.859c-25.535 25.535-39.501 60.9-41.348 102.966 8.656-6.579 17.913-12.905 27.802-18.938 20.116-12.282 42.075-23.006 65.497-32.078 9.072-23.422 19.796-45.385 32.082-65.492 6.015-9.857 12.318-19.087 18.866-27.72-42.278 1.915-77.711 16.066-102.898 41.262zM359.163 189.804c-8.457 13.844-16.125 28.637-22.988 44.22 24.74-7.834 50.817-13.957 77.824-18.233 22.108-16.089 44.78-30.177 67.632-42.075-32.326-12.612-64.3-20.432-94.481-22.681-9.862 11.474-19.227 24.424-27.987 38.77zM508.674 87.326c-36.106 0-70.969 15.118-102.009 43.529 33.202 4.443 67.637 14.626 102.009 29.847 34.363-15.222 68.802-25.404 101.999-29.847-31.039-28.416-65.912-43.529-101.999-43.529zM535.708 173.72c22.853 11.898 45.525 25.982 67.632 42.066 27.011 4.276 53.084 10.399 77.824 18.229-6.868-15.578-14.531-30.371-22.984-44.215-8.764-14.341-18.148-27.287-28-38.765-30.168 2.249-62.142 10.065-94.472 22.686zM761.025 191.859c-25.183-25.196-60.615-39.348-102.889-41.267 6.547 8.634 12.86 17.863 18.87 27.72 12.287 20.107 23.011 42.070 32.078 65.492 23.422 9.076 45.394 19.796 65.501 32.078 9.88 6.033 19.132 12.359 27.806 18.938-1.865-42.061-15.827-77.426-41.366-102.961zM821.997 342.178c-1.477 10.765-3.545 21.787-6.272 33.049-5.54 22.907-13.479 46.017-23.634 68.992 10.155 22.975 18.098 46.085 23.634 68.992 2.727 11.262 4.795 22.284 6.272 33.053 28.425-31.048 43.561-65.935 43.561-102.045s-15.136-71.001-43.561-102.040zM541.822 425.33h-98.861v-58.809h96.215c0.867 0.095 1.757 0.144 2.646 0.144 16.17 0 29.328 13.163 29.328 29.328 0 16.183-13.158 29.337-29.328 29.337z" />
<glyph unicode="&#xe931;" glyph-name="XBS-alt" d="M800.020 735.045c33.523-12.977 64.964-28.325 93.741-45.913 14.16-8.634 27.409-17.692 39.804-27.102-2.655 60.2-22.64 110.823-59.189 147.375-36.060 36.047-86.773 56.312-147.276 59.062 9.379-12.363 18.396-25.58 27.002-39.677 17.592-28.777 32.94-60.218 45.918-93.745zM659.161 896.716c-44.418 40.653-94.314 62.295-145.984 62.295s-101.571-21.638-145.994-62.295c47.53-6.371 96.811-20.938 145.998-42.721 49.191 21.783 98.468 36.349 145.98 42.721zM226.337 735.040c12.977 33.527 28.325 64.968 45.909 93.75 8.615 14.097 17.633 27.314 27.002 39.677-60.503-2.75-111.216-23.015-147.267-59.062-36.557-36.548-56.538-87.175-59.189-147.375 12.399 9.406 25.652 18.468 39.799 27.102 28.781 17.588 60.214 32.931 93.745 45.909zM775.497 185.889c8.43 23.268 15.673 47.548 21.724 72.64-14.373-16.703-29.527-33.049-45.412-48.952-15.935-15.921-32.304-31.071-49.002-45.43 25.101 6.046 49.404 13.303 72.69 21.742zM447.337 113.168c21.778-13.253 43.795-25.101 65.844-35.478 22.035 10.381 44.057 22.23 65.849 35.478-21.692-1.603-43.664-2.438-65.849-2.438s-44.161 0.835-65.844 2.438zM367.183-0.314c44.423-40.653 94.328-62.295 145.998-62.295s101.566 21.643 145.994 62.295c-47.512 6.362-96.802 20.943-145.994 42.725-49.187-21.783-98.468-36.358-145.998-42.725zM800.011 161.366c-12.977-33.532-28.316-64.964-45.909-93.754-8.606-14.106-17.624-27.309-27.002-39.664 60.503 2.741 111.216 23.002 147.276 59.053 36.553 36.562 56.538 87.175 59.189 147.375-12.395-9.41-25.648-18.468-39.804-27.111-28.781-17.583-60.223-32.922-93.75-45.9zM73.701 546.954c-3.897 16.116-6.863 31.893-8.977 47.308-40.684-44.446-62.354-94.368-62.354-146.052s21.665-101.62 62.354-146.061c2.118 15.429 5.080 31.197 8.977 47.313 7.92 32.787 19.29 65.871 33.825 98.753-14.535 32.877-25.91 65.953-33.825 98.739zM961.637 594.262c-2.118-15.416-5.084-31.197-8.977-47.313-7.92-32.787-19.299-65.858-33.821-98.748 14.522-32.882 25.901-65.966 33.821-98.753 3.892-16.111 6.863-31.884 8.977-47.313 40.684 44.441 62.349 94.377 62.349 146.061-0.005 51.693-21.67 101.629-62.349 146.066zM250.86 185.889c23.277-8.439 47.575-15.696 72.69-21.737-16.698 14.359-33.071 29.504-48.997 45.43-15.899 15.899-31.048 32.249-45.416 48.952 6.042-25.097 13.293-49.376 21.724-72.645zM226.337 161.366c-33.532 12.977-64.964 28.321-93.745 45.9-14.147 8.643-27.4 17.701-39.799 27.111 2.655-60.2 22.636-110.814 59.189-147.375 36.051-36.051 86.76-56.312 147.267-59.053-9.37 12.354-18.387 25.557-27.002 39.664-17.583 28.791-32.931 60.223-45.909 93.754zM142.201 448.205c10.498-22.415 22.541-44.716 36.011-66.734-1.657 21.977-2.502 44.256-2.502 66.734s0.844 44.757 2.502 66.729c-13.47-22.017-25.512-44.319-36.011-66.729zM932.887 622.050c-16.463 14.151-35.013 27.576-55.585 40.147-19.809 12.101-40.991 23.065-63.284 32.904 11.221-35.437 19.976-72.775 26.104-111.464 23.024-31.68 43.244-64.277 60.353-97.285 8.823 22.722 16.039 45.448 21.489 68.016 5.662 23.431 9.284 46.049 10.923 67.682zM814.023 201.305c22.293 9.835 43.475 20.794 63.284 32.904 20.572 12.566 39.122 26.004 55.585 40.147-1.626 21.643-5.26 44.256-10.918 67.691-5.45 22.559-12.666 45.29-21.489 68.012-17.109-33.003-37.334-65.596-60.353-97.281-6.132-38.688-14.887-76.031-26.108-111.473zM884.152 448.205c-10.507 22.419-22.541 44.721-36.020 66.734 1.662-21.977 2.502-44.251 2.502-66.734 0-22.478-0.84-44.757-2.493-66.743 13.47 22.026 25.517 44.328 36.011 66.743zM648.689 775.147c38.657-6.127 75.968-14.874 111.383-26.099-9.835 22.297-20.798 43.479-32.904 63.289-12.548 20.532-25.955 39.068-40.070 55.499-43.186-3.224-88.954-14.409-135.215-32.462 32.714-17.046 65.153-37.203 96.807-60.227zM377.677 121.255c-38.661 6.127-75.977 14.883-111.387 26.104 9.826-22.297 20.798-43.484 32.9-63.293 12.544-20.532 25.95-39.063 40.075-55.495 43.186 3.229 88.95 14.409 135.22 32.462-32.714 17.037-65.167 37.203-96.807 60.223zM266.285 749.047c35.401 11.221 72.726 19.967 111.383 26.099 31.64 23.024 64.092 43.181 96.807 60.223-46.274 18.057-92.034 29.242-135.22 32.462-14.124-16.432-27.526-34.968-40.075-55.499-12.097-19.805-23.069-40.987-32.895-63.284zM323.536 732.25c-25.101-6.046-49.399-13.298-72.676-21.724-8.43-23.277-15.682-47.557-21.724-72.649 14.364 16.712 29.517 33.058 45.416 48.952 15.921 15.926 32.29 31.071 48.984 45.421zM212.33 695.101c-22.297-9.835-43.479-20.803-63.28-32.904-20.572-12.571-39.131-25.995-55.585-40.147 1.63-21.634 5.256-44.251 10.909-67.678 5.455-22.568 12.675-45.304 21.489-68.016 17.118 33.003 37.329 65.6 60.353 97.285 6.127 38.679 14.878 76.022 26.113 111.459zM93.465 274.356c16.454-14.142 35.013-27.576 55.585-40.147 19.8-12.11 40.982-23.069 63.28-32.904-11.23 35.446-19.985 72.785-26.108 111.473-23.024 31.685-43.24 64.277-60.353 97.281-8.814-22.717-16.034-45.448-21.489-68.012-5.658-23.44-9.284-46.058-10.914-67.691zM797.216 637.886c-6.051 25.088-13.289 49.372-21.724 72.645-23.286 8.421-47.575 15.678-72.69 21.724 16.703-14.355 33.062-29.495 49.002-45.421 15.885-15.894 31.044-32.24 45.412-48.947zM513.181 818.721c-22.049-10.372-44.071-22.234-65.853-35.482 21.697 1.607 43.669 2.434 65.853 2.434s44.161-0.826 65.849-2.434c-21.783 13.248-43.813 25.106-65.849 35.482zM760.072 147.35c-35.415-11.207-72.735-19.963-111.392-26.090-31.644-23.024-64.083-43.177-96.798-60.218 46.265-18.053 92.025-29.238 135.211-32.462 14.115 16.441 27.522 34.963 40.070 55.495 12.106 19.805 23.074 40.987 32.909 63.275zM671.014 379.187c0 30.529-12.458 58.2-32.552 78.19 15.027 17.768 24.103 40.702 24.103 65.736 0 56.208-45.728 101.945-101.936 101.945h-175.705c-18.888 0-34.2-15.312-34.2-34.195v-288.072c0-18.902 15.312-34.209 34.2-34.209h175.705c1.544 0 3.052 0.149 4.543 0.343 58.764 2.398 105.842 50.921 105.842 110.263zM419.129 556.658h141.501c18.495 0 33.545-15.045 33.545-33.541s-15.050-33.541-33.545-33.541h-141.501v67.082zM560.629 337.207c-1.282 0-2.542-0.090-3.788-0.226h-137.712v84.191h141.501c23.142 0 41.98-18.838 41.98-41.985s-18.838-41.98-41.98-41.98z" />
<glyph unicode="&#xe932;" glyph-name="XCP" d="M511.903 959.801c-282.717 0-511.903-229.186-511.903-511.903s229.186-511.903 511.903-511.903c282.717 0 511.903 229.186 511.903 511.903-0.005 282.717-229.186 511.903-511.903 511.903zM833.687 388.886l-94.662-94.662h-89.907c-10.173-0.009-18.423-8.25-18.437-18.428l-0.036-0.032-0.081-53.978c-0.041-5.893-4.813-10.647-10.702-10.656h-68.576c-5.924 0-10.724 4.8-10.724 10.724v131.237l56.258 56.217c1.928 1.86 4.547 3.016 7.437 3.016 2.994 0 5.689-1.224 7.631-3.197h0.023l24.821-24.817h64.977l41.894 41.89v55.021l-43.154 43.15h-57.798l-229.818-229.818h-133.955l-95.42 95.416v128.722l95.556 95.551h130.614l56.606-56.637c1.883-1.928 3.052-4.561 3.052-7.464 0-2.958-1.206-5.644-3.138-7.581v-0.045l-48.049-47.913c-1.973-2.24-4.818-3.676-8.028-3.676-3.052 0-5.784 1.287-7.739 3.332l-30.014 29.906h-55.992l-42.784-42.779v-54.109l42.648-42.644h59.342l229.818 229.818h132.416l95.922-95.926v-129.639z" />
<glyph unicode="&#xe933;" glyph-name="XCP-alt" d="M873.396 730.353h-208.645l-362.116-362.121h-93.497l-67.203 67.199v85.252l67.416 67.411h88.218l47.286-47.128c3.080-3.22 7.392-5.251 12.201-5.251 5.062 0 9.546 2.262 12.648 5.789l75.706 75.571c3.052 3.052 4.949 7.283 4.949 11.948 0 4.583-1.838 8.724-4.8 11.763v0.032l-89.198 89.212h-205.805l-150.554-150.554v-202.834l150.342-150.342h211.075l362.121 362.121h91.068l67.994-67.998v-86.683l-66.007-66.011h-102.388l-39.14 39.104c-3.071 3.111-7.315 5.044-12.029 5.044-4.561 0-8.679-1.82-11.722-4.759h-0.068l-88.575-88.58v-206.78c0-9.32 7.568-16.897 16.897-16.897h108.050c9.284 0.018 16.807 7.514 16.87 16.793l0.117 85.053 0.054 0.054c0.027 16.034 13.023 29.025 29.061 29.034h141.659l149.154 149.159v204.256l-151.137 151.146z" />
<glyph unicode="&#xe934;" glyph-name="XEM" d="M512.476 960c-283.033 0-512.476-229.444-512.476-512.476s229.444-512.476 512.476-512.476 512.476 229.444 512.476 512.476-229.444 512.476-512.476 512.476zM253.899 464.574c-1.924 7.816-3.531 14.905-4.913 21.638-6.574 32.087-10.408 64.941-11.392 97.638-0.059 2.032 0.126 2.443 0.781 3.567 0.298 0.528 0.564 0.98 4.452 3.048 82.678 44.030 175.908 67.303 269.599 67.303 20.18 0 40.616-1.111 61.017-3.319-50.343-29.161-81.703-82.737-81.703-142.779l0.005-0.33c-0.19-43.615-22.668-83.066-60.263-105.63-1.070-0.659-2.14-1.264-3.337-1.919-18.256-10.16-39.018-15.533-60.028-15.533-49.354 0-95.181 30.646-114.218 76.316zM610.724 186.964c-5.897-5.662-11.262-10.629-16.409-15.194-22.6-20.062-47.119-38.53-72.848-54.885-2.456-1.549-3.667-2.050-8.656-2.050-5.513 0-7.076 0.632-9.338 2.073-94.459 59.952-170.63 148.621-216.57 251.515 24.781-14.043 52.871-21.602 81.219-21.602 28.041 0 55.734 7.162 80.014 20.667 1.644 0.885 3.292 1.842 4.538 2.619 18.102 10.078 38.779 15.407 59.807 15.407 20.911 0 41.583-5.328 59.369-15.163l1.138-0.659c0.935-0.524 1.878-1.066 2.908-1.702 37.122-22.221 60.177-62.882 60.177-106.113-0.005-26.831-8.999-53.409-25.35-74.911zM677.502 263.533c-0.582 57.102-31.202 110.61-80.158 139.925-1.346 0.822-2.782 1.639-3.924 2.258l-0.537 0.334c-37.356 22.609-59.667 62.151-59.681 105.77v1.58c0.822 67.461 55.951 122.089 123.592 122.089 6.245 0 12.598-0.488 18.911-1.454 7.026-2.077 13.93-4.263 20.527-6.489 29.45-9.934 58.349-22.41 85.888-37.081 3.897-2.073 4.168-2.542 4.461-3.043 0.664-1.156 0.826-1.508 0.768-3.531-3.454-114.444-42.274-227.244-109.847-320.358z" />
<glyph unicode="&#xe935;" glyph-name="XEM-alt" d="M354.914 480.581c2.24 1.219 4.235 2.353 6.213 3.576 70.030 42.034 111.893 115.501 112.241 196.729l-0.009 0.614c0 111.83 58.407 211.612 152.171 265.919-37.993 4.109-76.058 6.186-113.64 6.186-174.504 0-348.128-43.348-502.122-125.349-7.247-3.856-7.744-4.701-8.299-5.68-1.21-2.091-1.558-2.863-1.449-6.642 1.833-60.895 8.968-122.084 21.218-181.846 2.578-12.539 5.577-25.743 9.157-40.296 35.442-85.062 120.797-142.142 212.723-142.142 39.14 0 77.806 10.006 111.798 28.93zM630.090 413.893c-1.919 1.179-3.671 2.199-5.419 3.179l-2.118 1.224c-33.125 18.319-71.624 28.231-110.574 28.231-39.153 0-77.67-9.911-111.392-28.691-2.316-1.44-5.378-3.229-8.439-4.886-45.227-25.151-96.807-38.481-149.028-38.481-52.781 0-105.106 14.075-151.268 40.233 85.568-191.64 227.43-356.788 403.361-468.442 4.213-2.691 7.125-3.861 17.394-3.861 9.297 0 11.56 0.939 16.12 3.82 47.931 30.466 93.592 64.86 135.685 102.234 9.577 8.498 19.574 17.755 30.552 28.289 30.457 40.066 47.218 89.564 47.218 139.523-0.009 80.524-42.955 156.253-112.092 197.628zM1022.496 822.59c-0.546 0.939-1.043 1.806-8.299 5.671-51.314 27.327-105.129 50.564-159.978 69.064-12.287 4.145-25.151 8.209-38.241 12.083-11.749 1.797-23.58 2.709-35.211 2.709-125.986 0-228.667-101.742-230.193-227.38v-2.949c0.036-81.251 41.574-154.889 111.152-197l1.011-0.619c2.127-1.151 4.8-2.678 7.301-4.199 91.185-54.592 148.211-154.27 149.29-260.618 125.859 173.42 198.165 383.506 204.595 596.662 0.104 3.757-0.181 4.416-1.427 6.574z" />
<glyph unicode="&#xe936;" glyph-name="XMR" d="M179.363 287.103v429.645l332.974-332.974 332.649 332.649v-429.324h153.236c16.703 50.541 25.779 104.555 25.779 160.705 0 282.667-229.141 511.813-511.813 511.813-282.667 0-511.813-229.145-511.813-511.813 0-56.15 9.067-110.159 25.779-160.705h153.209zM733.941 182.995v271.613l-223.492-223.492-221.925 221.925v-270.051h-214.394c89.695-148.044 252.319-246.995 438.057-246.995 185.743 0 348.362 98.952 438.057 246.995h-216.304z" />
<glyph unicode="&#xe937;" glyph-name="XPM" d="M511.957 960c-282.748 0-511.957-229.209-511.957-511.948 0-282.744 229.209-511.957 511.957-511.957 282.739 0 511.948 229.218 511.948 511.957 0.005 282.739-229.209 511.948-511.948 511.948zM751.312 449.1c0-132.709-102.496-177.823-188.773-177.823v-34.597h66.567v-46.857h-66.567v-53.883h-104.095v53.883h-63.645v46.857h63.501v35.035c-27.594 0-185.698 6.574-185.698 187.021 0 170.372 0 217.229 0 217.229h103.363c0 0 0-196.648 0-225.556 0-94.165 82.773-93.285 82.773-93.285v318.84h103.801v-318.84c0 0 85.405-4.813 85.405 94.594 0 99.426 0 224.246 0 224.246h103.368c0 0 0-155.042 0-226.865z" />
<glyph unicode="&#xe938;" glyph-name="XPM-alt" d="M58.132 960h195.993c0 0 0-372.89 0-427.708 0-178.554 156.975-176.897 156.975-176.897v604.605h196.824v-604.601c0 0 161.942-9.13 161.942 179.385 0 188.525 0 425.215 0 425.215h196.002c0 0 0-293.992 0-430.191 0-251.641-194.336-337.182-357.944-337.182v-65.614h126.234v-88.86h-126.234v-102.153h-197.384v102.153h-120.702v88.86h120.418v66.445c-52.307 0-352.124 12.458-352.124 354.621 0 323.067 0 411.922 0 411.922z" />
<glyph unicode="&#xe939;" glyph-name="XRP" d="M512.413 959.174c-282.541 0-511.587-229.046-511.587-511.587s229.046-511.587 511.587-511.587c282.541 0 511.587 229.051 511.587 511.587 0 282.541-229.046 511.587-511.587 511.587zM726.531 219.647c-33.256-57.148-107.942-77.3-166.805-45.019-58.868 32.281-79.63 104.781-46.365 161.933 13.853 23.805 5.206 54.005-19.326 67.465-24.185 13.262-54.781 5.265-68.91-17.795h-0.009v0.095c-0.199-0.352-0.375-0.7-0.578-1.048-33.256-57.148-107.937-77.304-166.801-45.019-58.872 32.281-79.634 104.79-46.378 161.924 33.265 57.152 107.942 77.304 166.819 45.015 19.674-10.792 35.062-26.095 45.638-43.8v0.063l0.009 0.009c14.666-22.722 45.403-30.046 69.272-16.269 24.212 13.975 32.173 44.36 17.773 67.867-34.548 56.416-15.443 129.345 42.676 162.881 58.109 33.541 133.233 14.996 167.79-41.416 34.548-56.421 15.452-129.345-42.676-162.886-19.43-11.212-40.765-16.576-61.848-16.68l0.054-0.023v-0.009c-27.883-0.935-50.036-23.304-49.702-50.532 0.33-27.589 23.656-49.706 52.077-49.381l-0.176-0.095c20.73 0.163 41.772-4.755 61.108-15.357 58.854-32.29 79.616-104.786 46.36-161.924z" />
<glyph unicode="&#xe93a;" glyph-name="XRP-alt" d="M886.039 330.027c-34.272 18.793-71.561 27.499-108.285 27.21l0.312 0.176c-50.383-0.578-91.713 38.607-92.305 87.509-0.582 48.252 38.675 87.902 88.074 89.55v0.023l-0.090 0.045c37.37 0.181 75.178 9.686 109.622 29.563 102.997 59.446 136.859 188.687 75.629 288.673-61.243 99.99-194.377 132.858-297.374 73.412-102.997-59.441-136.854-188.687-75.62-288.673 25.503-41.664 11.406-95.511-31.509-120.283-42.305-24.415-96.78-11.442-122.766 28.822l-0.023-0.009v-0.113c-18.726 31.387-46.008 58.502-80.885 77.63-104.32 57.22-236.686 21.512-295.626-79.774-58.94-101.263-22.139-229.755 82.186-286.97 104.329-57.22 236.677-21.507 295.622 79.774 0.357 0.61 0.673 1.242 1.020 1.856v-0.149l0.023-0.009c25.038 40.883 79.269 55.048 122.129 31.54 43.475-23.846 58.796-77.377 34.241-119.569-58.949-101.286-22.144-229.769 82.177-286.979 104.325-57.224 236.686-21.507 295.626 79.774 58.931 101.272 22.144 229.751-82.177 286.97z" />
<glyph unicode="&#xe93b;" glyph-name="XVG" d="M403.808 678.006l-187.152 156.962 99.606-220.038-297.347 249.375 468.090-767.139v602.934l-167.907 140.805zM234.045 217.583l234.045-185.887-468.090 767.134zM706.483 614.929l99.611 220.038-187.161-156.962 84.714 162.899-167.907-140.805v-602.934l468.085 767.139zM788.704 217.583l234.040 581.247-468.080-767.134z" />
<glyph unicode="&#xe93c;" glyph-name="XVG-alt" d="M512.129 960c-282.839 0-512.129-229.29-512.129-512.129s229.29-512.129 512.129-512.129 512.129 229.29 512.129 512.129-229.29 512.129-512.129 512.129zM329.375 248.772l-154.234 383.032 308.464-505.527-154.23 122.495zM496.067 169.417l-308.459 505.532 195.943-164.326-65.637 144.996 123.326-103.431-55.815 107.346 110.642-92.788v-397.328zM528.186 566.745l110.647 92.788-55.82-107.346 123.33 103.431-65.637-144.996 195.948 164.331-308.464-505.532v397.323zM694.887 248.772l-154.234-122.495 308.464 505.527-154.23-383.032z" />
<glyph unicode="&#xe93d;" glyph-name="YBC" d="M512.269 959.449c-282.604 0-511.713-229.109-511.713-511.731 0-282.613 229.109-511.718 511.718-511.718 282.622 0 511.731 229.105 511.731 511.718-0.005 282.622-229.109 511.731-511.736 511.731zM591.935 130.259c-25.499-6.385-52.181-9.785-79.662-9.785-180.731 0-327.239 146.517-327.239 327.244 0 135.807 82.719 252.274 200.509 301.799v-380.061l48.586-48.469h157.806v-190.728zM639.013 145.932v380.052l-48.6 48.469h-157.792v190.737c25.494 6.376 52.181 9.785 79.653 9.785 180.735 0 327.253-146.517 327.253-327.257 0-135.789-82.723-252.26-200.513-301.786z" />
<glyph unicode="&#xe93e;" glyph-name="YBC-alt" d="M389.15 250.004h247.135v-298.683c-39.948-9.988-81.73-15.321-124.762-15.321-283.033 0-512.472 229.444-512.472 512.476 0 212.66 129.539 395.057 314.004 472.614v-595.177l76.094-75.909zM709.996 571.039v-595.177c184.474 77.557 314.004 259.95 314.004 472.614 0 283.033-229.444 512.476-512.476 512.476-43.028 0-84.809-5.337-124.744-15.321v-298.688h247.131l76.085-75.905z" />
</font>
</defs>
</svg>
