<?xml version="1.0" encoding="UTF-8" standalone="no"?>
<svg
   xmlns:dc="http://purl.org/dc/elements/1.1/"
   xmlns:cc="http://creativecommons.org/ns#"
   xmlns:rdf="http://www.w3.org/1999/02/22-rdf-syntax-ns#"
   xmlns:svg="http://www.w3.org/2000/svg"
   xmlns="http://www.w3.org/2000/svg"
   width="500"
   height="500"
   viewBox="0 0 132.29166 132.29166"
   version="1.1"
   id="svg8">
  <defs
     id="defs2" />
  <metadata
     id="metadata5">
    <rdf:RDF>
      <cc:Work
         rdf:about="">
        <dc:format>image/svg+xml</dc:format>
        <dc:type
           rdf:resource="http://purl.org/dc/dcmitype/StillImage" />
        <dc:title></dc:title>
      </cc:Work>
    </rdf:RDF>
  </metadata>
  <g
     id="layer1"
     transform="translate(0,-164.70834)"
     style="display:inline">
    <circle
       style="fill:#404040;fill-opacity:1;stroke-width:0.26458332"
       id="path12"
       cx="67.049217"
       cy="230.90106"
       r="55.324791" />
  </g>
  <g
     id="layer2">
    <g
       aria-label="G"
       style="font-style:normal;font-weight:normal;font-size:12.50133419px;line-height:1.25;font-family:sans-serif;letter-spacing:0px;word-spacing:0px;fill:#ffffff;fill-opacity:1;stroke:none;stroke-width:0.31253335"
       id="text17"
       transform="matrix(1.0081333,0,0,1.0081333,-1.2775248,0.02379485)">
      <path
         style="font-style:normal;font-variant:normal;font-weight:normal;font-stretch:normal;font-size:125.01334381px;font-family:Bahnschrift;-inkscape-font-specification:Bahnschrift;fill:#ffffff;stroke-width:1.19083571"
         d="m 253.61328,79.265625 c -23.56863,0 -44.34545,5.27255 -62.33203,15.816406 -17.83153,10.388799 -31.63182,25.117479 -41.40039,44.189449 -9.76857,19.07198 -14.6543,41.16792 -14.6543,66.28711 v 99.7793 c 0,23.72368 4.96297,44.57983 14.88672,62.56641 9.92363,17.98656 23.87864,31.94158 41.86524,41.86523 18.14163,9.76857 39.15251,14.65235 63.03125,14.65235 23.56862,-10e-6 44.26808,-5.19518 62.09961,-15.58399 17.98658,-10.54385 31.86423,-25.3519 41.63281,-44.42383 9.76857,-19.22703 14.73842,-41.40048 14.65234,-66.51953 l -0.0195,-5.62305 c -0.19166,0.13726 -0.37686,0.2709 -0.53125,0.38086 -0.4103,0.29224 -1.07995,0.77251 -1.49023,1.06641 -0.41031,0.2939 -1.08191,0.77225 -1.49219,1.06445 -0.41029,0.2922 -1.0819,0.77248 -1.49219,1.06641 -0.41028,0.2939 -1.0819,0.7742 -1.49219,1.06641 -0.41028,0.29219 -1.0819,0.77052 -1.49218,1.06445 -0.41029,0.29389 -1.08191,0.77418 -1.49219,1.06641 -0.41029,0.29223 -1.04459,0.74753 -1.41016,1.01171 -0.36555,0.26419 -1.36147,0.9588 -2.21289,1.54493 -0.85142,0.58613 -1.84734,1.28269 -2.21289,1.54687 -0.36559,0.26419 -0.99987,0.7195 -1.41016,1.01172 -0.4103,0.29219 -1.0819,0.77249 -1.49218,1.06641 -0.41029,0.29389 -1.08191,0.77225 -1.49219,1.06445 -0.41029,0.29219 -1.0819,0.77248 -1.49219,1.06641 -4.0264,2.88429 -4.72219,3.30273 -5.48633,3.30273 -1.37728,0 -1.26831,0.10571 -10.92578,-10.3457 -1.817,-1.9664 -4.21448,-4.55042 -5.32812,-5.74219 -1.11363,-1.1918 -3.41546,-3.68736 -5.11524,-5.54492 -0.17602,-0.19237 -0.34234,-0.37037 -0.52929,-0.57422 v 10.37109 c 0,16.43601 -2.86837,30.62313 -8.60547,42.5625 -5.7371,11.93937 -13.87802,21.08799 -24.42188,27.44531 -10.54386,6.20227 -22.79294,9.30274 -36.74804,9.30274 -14.11017,0 -26.5933,-3.0231 -37.44727,-9.07031 -10.69892,-6.04721 -18.99456,-14.4976 -24.88672,-25.35157 -5.89215,-11.00903 -8.83789,-23.80162 -8.83789,-38.37695 v -99.7793 c 0,-15.97084 2.86837,-29.92586 8.60547,-41.86523 5.7371,-12.09443 13.87802,-21.47514 24.42187,-28.14258 10.54386,-6.66744 22.79294,-10.00195 36.74805,-10.00195 9.61352,0 18.91687,2.17208 27.91016,6.51367 8.99329,4.18653 16.82475,10.38941 23.49218,18.60742 6.66744,8.06295 11.39648,17.75312 14.1875,29.07227 h 51.4004 C 366.7271,159.73987 359.28442,142.14087 348.27539,126.94531 337.26636,111.74976 323.54343,100.04223 307.10742,91.824219 290.82646,83.451156 272.99537,79.265625 253.61328,79.265625 Z"
         transform="matrix(0.26244876,0,0,0.26244876,0.98602303,-0.49226138)"
         id="path4537" />
    </g>
  </g>
  <g
     id="layer4"
     style="display:inline">
    <path
       style="display:inline;fill:#68eeac;stroke-width:0.05639258"
       d="m 62.574502,79.39659 c -0.242408,-0.143055 -0.378879,-0.383616 -0.378879,-0.667845 0,-0.356658 0.03649,-0.398688 2.077921,-2.393046 0.920687,-0.899465 4.765545,-4.70596 8.544122,-8.458889 3.77858,-3.752924 7.606722,-7.54039 8.506978,-8.416592 1.603353,-1.560495 1.641557,-1.59309 1.867677,-1.59309 0.316056,0 0.579282,0.179213 1.047656,0.713275 0.213576,0.243525 0.6686,0.736488 1.011172,1.095475 0.342567,0.358987 1.041562,1.105309 1.553328,1.658497 0.511762,0.553183 1.222308,1.315151 1.57899,1.693259 0.356685,0.378112 1.092607,1.16488 1.635386,1.748377 2.243198,2.411467 2.392006,2.540906 2.723418,2.368965 0.138449,-0.07183 0.377583,-0.215937 4.212867,-2.538859 1.194117,-0.723239 3.122742,-1.890277 4.285842,-2.593405 3.24457,-1.961474 3.0452,-1.82284 3.0452,-2.117419 0,-0.12641 -0.65808,-1.178534 -1.26884,-2.028584 -0.23212,-0.323077 -2.2148,-3.303463 -2.27627,-3.421723 -0.17772,-0.341942 0.0256,-0.824729 0.40876,-0.97056 0.22048,-0.08391 0.64858,-0.05308 1.38817,0.09997 0.13957,0.0289 0.55829,0.108117 0.93048,0.176079 0.3722,0.06796 0.77822,0.144164 0.90228,0.169346 0.12407,0.02517 0.37783,0.07586 0.56393,0.112614 0.18609,0.03677 0.43986,0.08744 0.56393,0.112618 0.12406,0.02517 0.53009,0.101385 0.90227,0.169346 0.37219,0.06796 0.77823,0.144165 0.90229,0.169346 0.12407,0.02517 0.37783,0.07576 0.56393,0.112398 0.42471,0.08361 0.83641,0.165876 1.12784,0.225361 0.12407,0.02531 0.5301,0.101647 0.90229,0.169604 0.37219,0.06796 0.77822,0.144168 0.90228,0.169351 0.12406,0.02517 0.37783,0.07586 0.56394,0.112613 0.18608,0.03677 0.43985,0.08744 0.56392,0.112614 0.12406,0.02517 0.5174,0.09817 0.87407,0.162194 0.35668,0.06402 0.69927,0.127736 0.7613,0.141578 0.062,0.01385 0.26505,0.05477 0.45115,0.09094 0.18609,0.03617 0.43986,0.08702 0.56392,0.112995 0.12406,0.02596 0.37783,0.07773 0.56392,0.114993 0.5199,0.104114 0.80904,0.224993 0.95602,0.399654 0.24954,0.296566 0.24564,0.392153 -0.0815,1.994819 -0.0253,0.124063 -0.10165,0.530091 -0.16961,0.902281 -0.0679,0.372194 -0.14417,0.778218 -0.16935,0.902286 -0.0252,0.124062 -0.0759,0.377827 -0.11262,0.563924 -0.0368,0.186092 -0.0875,0.43986 -0.11261,0.563924 -0.0252,0.124064 -0.10138,0.530091 -0.16935,0.902281 -0.0679,0.37219 -0.14416,0.778217 -0.16934,0.902281 -0.0252,0.124063 -0.0759,0.377831 -0.11262,0.563928 -0.0368,0.186093 -0.0875,0.439862 -0.11261,0.563925 -0.0252,0.124063 -0.10139,0.530091 -0.16935,0.902281 -0.0679,0.37219 -0.14417,0.778217 -0.16935,0.902281 -0.0252,0.124063 -0.0759,0.377832 -0.11262,0.563924 -0.0368,0.186098 -0.0875,0.439865 -0.11261,0.563929 -0.0252,0.124064 -0.0982,0.517399 -0.1622,0.874085 -0.064,0.356681 -0.12773,0.699266 -0.14157,0.761297 -0.0138,0.06203 -0.0547,0.265046 -0.0909,0.451144 -0.0362,0.186093 -0.087,0.439862 -0.113,0.563925 -0.0259,0.124063 -0.0767,0.377831 -0.11279,0.563924 -0.13374,0.690348 -0.18879,0.849373 -0.35554,1.027062 -0.21223,0.226143 -0.55949,0.296392 -0.81415,0.164708 -0.20313,-0.105044 -0.49572,-0.452936 -0.94823,-1.127409 -0.18433,-0.274761 -0.3859,-0.570158 -0.44793,-0.656445 -0.10521,-0.146331 -1.47036,-2.157805 -1.66849,-2.458443 -0.0492,-0.07469 -0.1806,-0.237272 -0.29194,-0.361298 -0.29855,-0.332562 -0.42249,-0.316102 -1.05658,0.140363 -0.10856,0.07814 -0.28619,0.205343 -0.39475,0.282655 -0.10855,0.07731 -0.28618,0.204196 -0.39474,0.281964 -0.10856,0.07776 -0.28619,0.204648 -0.39475,0.281966 -0.10856,0.07731 -0.2862,0.204195 -0.39475,0.281958 -0.10856,0.07776 -0.28619,0.204649 -0.39475,0.281966 -0.10856,0.07731 -0.28619,0.204196 -0.39474,0.28196 -0.10856,0.07776 -0.2862,0.204651 -0.39475,0.281964 -0.10856,0.07731 -0.27651,0.197762 -0.37324,0.267662 -0.0967,0.0699 -0.36017,0.25397 -0.58543,0.409051 -0.22528,0.15508 -0.48873,0.339147 -0.58545,0.409047 -0.0967,0.0699 -0.26468,0.190349 -0.37323,0.26766 -0.10855,0.07732 -0.28619,0.204199 -0.39475,0.281966 -0.10856,0.07776 -0.28619,0.204647 -0.39475,0.281964 -0.10856,0.07731 -0.28619,0.204195 -0.39474,0.28196 -0.10856,0.07776 -0.2862,0.204647 -0.39475,0.281964 -0.10856,0.07731 -0.2862,0.204197 -0.39475,0.281965 -0.10856,0.07776 -0.2862,0.204647 -0.39475,0.281959 -0.10856,0.07731 -0.28619,0.204198 -0.39475,0.281966 -0.10855,0.07776 -0.28619,0.204646 -0.39474,0.281963 -0.10856,0.07731 -0.27651,0.197764 -0.373242,0.267662 -0.0967,0.0699 -0.36017,0.253967 -0.585439,0.409047 -0.225274,0.15508 -0.48872,0.339153 -0.585438,0.409051 -0.09673,0.0699 -0.26468,0.190345 -0.373235,0.267662 -0.108559,0.07732 -0.286193,0.204197 -0.394748,0.281959 -0.108559,0.07776 -0.286194,0.204654 -0.394748,0.281966 -0.108555,0.07731 -0.286194,0.204196 -0.39475,0.281964 -0.108554,0.07776 -0.286193,0.204648 -0.394748,0.28196 -0.108554,0.07731 -0.286193,0.204196 -0.394748,0.281964 -0.108555,0.07776 -0.286194,0.204648 -0.394748,0.281965 -0.108555,0.07732 -0.276512,0.197763 -0.373235,0.267661 -0.09672,0.0699 -0.360169,0.253967 -0.585439,0.409046 -0.225273,0.155082 -0.488719,0.339154 -0.585437,0.409052 -0.09673,0.0699 -0.26468,0.190345 -0.373235,0.267662 -0.108559,0.07731 -0.286194,0.204196 -0.394748,0.281961 -0.108555,0.07776 -0.286194,0.204651 -0.394748,0.281963 -0.108555,0.07731 -0.286194,0.204196 -0.394749,0.281964 -1.065318,0.763137 -1.249588,0.874085 -1.451765,0.874085 -0.364407,0 -0.335259,0.02761 -2.890463,-2.737661 -0.480749,-0.520275 -1.115166,-1.203946 -1.409818,-1.51927 -0.294647,-0.315329 -0.903689,-0.975438 -1.353421,-1.466918 -0.449727,-0.491477 -1.058769,-1.151269 -1.353421,-1.466205 -0.294647,-0.314938 -0.903689,-0.974729 -1.353422,-1.466205 -1.933728,-2.113232 -2.125333,-2.28661 -2.439742,-2.2077 -0.07288,0.01832 -1.710719,1.080793 -3.639629,2.361114 -3.349529,2.223258 -8.617351,5.709754 -12.094067,8.004425 -1.493228,0.985547 -1.64569,1.072722 -1.91735,1.096302 -0.182656,0.01587 -0.341677,-0.0019 -0.417275,-0.04646 z"
       id="path5283" />
  </g>
  <g
     style="display:inline"
     id="g5342" />
</svg>
